<?xml version="1.0" encoding="UTF-8" standalone="no"?>
<!-- Created with Inkscape (http://www.inkscape.org/) -->

<svg
   xmlns:dc="http://purl.org/dc/elements/1.1/"
   xmlns:cc="http://creativecommons.org/ns#"
   xmlns:rdf="http://www.w3.org/1999/02/22-rdf-syntax-ns#"
   xmlns:svg="http://www.w3.org/2000/svg"
   xmlns="http://www.w3.org/2000/svg"
   xmlns:sodipodi="http://sodipodi.sourceforge.net/DTD/sodipodi-0.dtd"
   xmlns:inkscape="http://www.inkscape.org/namespaces/inkscape"
   width="132.06784mm"
   height="152.49881mm"
   viewBox="0 0 132.06784 152.49881"
   version="1.1"
   id="svg8"
   inkscape:version="0.92.4 (5da689c313, 2019-01-14)"
   sodipodi:docname="logo.svg"
   inkscape:export-filename="C:\Users\apdev\Documents\github\R-packages\maintainer\miniCRAN\miniCRAN\man\figures\miniCRAN-logo.png"
   inkscape:export-xdpi="46.16"
   inkscape:export-ydpi="46.16">
  <defs
     id="defs2">
    <clipPath
       clipPathUnits="userSpaceOnUse"
       id="clipPath842">
      <path
         sodipodi:type="star"
         style="opacity:1;fill:none;fill-opacity:0.97979796;stroke:#ffffff;stroke-width:3.11897802;stroke-miterlimit:4;stroke-dasharray:none;stroke-dashoffset:0;stroke-opacity:1"
         id="path844"
         sodipodi:sides="6"
         sodipodi:cx="82.041534"
         sodipodi:cy="193.5974"
         sodipodi:r1="73.940002"
         sodipodi:r2="64.03392"
         sodipodi:arg1="0.52359878"
         sodipodi:arg2="1.0471976"
         inkscape:flatsided="true"
         inkscape:rounded="0"
         inkscape:randomized="0"
         d="m 146.07545,230.5674 -64.033916,36.97 -64.03392,-36.97 0,-73.94 64.033921,-36.97001 64.033925,36.97001 z"
         inkscape:transform-center-x="3.0492663e-06"
         inkscape:transform-center-y="-6.6020762e-06" />
    </clipPath>
    <clipPath
       clipPathUnits="userSpaceOnUse"
       id="clipPath831">
      <path
         sodipodi:type="star"
         style="opacity:1;fill:none;fill-opacity:0.97979796;stroke:#a71b1e;stroke-width:4;stroke-miterlimit:4;stroke-dasharray:none;stroke-dashoffset:0;stroke-opacity:1"
         id="path833"
         sodipodi:sides="6"
         sodipodi:cx="102.62011"
         sodipodi:cy="146.68599"
         sodipodi:r1="73.940002"
         sodipodi:r2="64.03392"
         sodipodi:arg1="0.52359878"
         sodipodi:arg2="1.0471976"
         inkscape:flatsided="true"
         inkscape:rounded="0"
         inkscape:randomized="0"
         d="m 166.65403,183.65599 -64.03392,36.97 -64.033921,-36.97 0,-73.94 64.033921,-36.970003 64.03392,36.970003 z"
         inkscape:transform-center-x="3.0492663e-06"
         inkscape:transform-center-y="-6.6020762e-06" />
    </clipPath>
    <clipPath
       clipPathUnits="userSpaceOnUse"
       id="clipPath868">
      <path
         sodipodi:type="star"
         style="opacity:1;fill:none;fill-opacity:0.97979796;stroke:#a71b1e;stroke-width:4;stroke-miterlimit:4;stroke-dasharray:none;stroke-dashoffset:0;stroke-opacity:1"
         id="path870"
         sodipodi:sides="6"
         sodipodi:cx="102.62011"
         sodipodi:cy="146.68599"
         sodipodi:r1="73.940002"
         sodipodi:r2="64.03392"
         sodipodi:arg1="0.52359878"
         sodipodi:arg2="1.0471976"
         inkscape:flatsided="true"
         inkscape:rounded="0"
         inkscape:randomized="0"
         d="m 166.65403,183.65599 -64.03392,36.97 -64.033921,-36.97 0,-73.94 64.033921,-36.970003 64.03392,36.970003 z"
         inkscape:transform-center-x="3.0492663e-06"
         inkscape:transform-center-y="-6.6020762e-06" />
    </clipPath>
    <clipPath
       clipPathUnits="userSpaceOnUse"
       id="clipPath885">
      <path
         sodipodi:type="star"
         style="opacity:1;fill:none;fill-opacity:0.97979796;stroke:#a71b1e;stroke-width:4;stroke-miterlimit:4;stroke-dasharray:none;stroke-dashoffset:0;stroke-opacity:1"
         id="path887"
         sodipodi:sides="6"
         sodipodi:cx="102.62011"
         sodipodi:cy="146.68599"
         sodipodi:r1="73.940002"
         sodipodi:r2="64.03392"
         sodipodi:arg1="0.52359878"
         sodipodi:arg2="1.0471976"
         inkscape:flatsided="true"
         inkscape:rounded="0"
         inkscape:randomized="0"
         d="m 166.65403,183.65599 -64.03392,36.97 -64.033921,-36.97 0,-73.94 64.033921,-36.970003 64.03392,36.970003 z"
         inkscape:transform-center-x="3.0492663e-06"
         inkscape:transform-center-y="-6.6020762e-06" />
    </clipPath>
    <mask
       maskUnits="userSpaceOnUse"
       id="mask4825">
      <g
         id="g4831">
        <rect
           style="opacity:1;vector-effect:none;fill:#578dc5;fill-opacity:1;stroke:none;stroke-width:0.1457504;stroke-linecap:butt;stroke-linejoin:miter;stroke-miterlimit:4;stroke-dasharray:none;stroke-dashoffset:0;stroke-opacity:1"
           id="rect4827"
           width="33.598763"
           height="33.598763"
           x="68.167076"
           y="168.22989" />
        <rect
           style="opacity:1;vector-effect:none;fill:#578dc5;fill-opacity:1;stroke:none;stroke-width:0.1457504;stroke-linecap:butt;stroke-linejoin:miter;stroke-miterlimit:4;stroke-dasharray:none;stroke-dashoffset:0;stroke-opacity:1"
           id="rect4829"
           width="33.598763"
           height="33.598763"
           x="101.76582"
           y="168.22989" />
      </g>
    </mask>
    <clipPath
       clipPathUnits="userSpaceOnUse"
       id="clipPath4853">
      <path
         style="fill:#4e7dab;fill-opacity:1;stroke:none;stroke-width:0.15277882px;stroke-linecap:butt;stroke-linejoin:miter;stroke-opacity:1"
         d="m 17.061585,168.35154 -67.03291,-0.0227 0.0035,3.79683 z"
         id="path4855"
         inkscape:connector-curvature="0" />
    </clipPath>
    <clipPath
       clipPathUnits="userSpaceOnUse"
       id="clipPath4857">
      <path
         style="fill:#4e7dab;fill-opacity:1;stroke:none;stroke-width:0.15277882px;stroke-linecap:butt;stroke-linejoin:miter;stroke-opacity:1"
         d="m 17.061585,168.35154 -67.03291,-0.0227 0.0035,3.79683 z"
         id="path4859"
         inkscape:connector-curvature="0" />
    </clipPath>
    <clipPath
       clipPathUnits="userSpaceOnUse"
       id="clipPath4873">
      <path
         inkscape:connector-curvature="0"
         id="path4875"
         d="m -80.436897,-134.84488 94.93643,0.0234 -0.005,-3.91921 z"
         style="fill:#588fc6;fill-opacity:1;stroke:#588fc6;stroke-width:0.18472448px;stroke-linecap:butt;stroke-linejoin:miter;stroke-opacity:1" />
    </clipPath>
    <clipPath
       clipPathUnits="userSpaceOnUse"
       id="clipPath4877">
      <path
         inkscape:connector-curvature="0"
         id="path4879"
         d="m -80.436897,-134.84488 94.93643,0.0234 -0.005,-3.91921 z"
         style="fill:#588fc6;fill-opacity:1;stroke:#588fc6;stroke-width:0.18472448px;stroke-linecap:butt;stroke-linejoin:miter;stroke-opacity:1" />
    </clipPath>
    <clipPath
       clipPathUnits="userSpaceOnUse"
       id="clipPath4881">
      <path
         inkscape:connector-curvature="0"
         id="path4883"
         d="m -80.436897,-134.84488 94.93643,0.0234 -0.005,-3.91921 z"
         style="fill:#588fc6;fill-opacity:1;stroke:#588fc6;stroke-width:0.18472448px;stroke-linecap:butt;stroke-linejoin:miter;stroke-opacity:1" />
    </clipPath>
    <filter
       inkscape:collect="always"
       style="color-interpolation-filters:sRGB"
       id="filter1268"
       x="-0.014049405"
       width="1.0280988"
       y="-0.082264298"
       height="1.1645286">
      <feGaussianBlur
         inkscape:collect="always"
         stdDeviation="0.57475216"
         id="feGaussianBlur1270" />
    </filter>
  </defs>
  <sodipodi:namedview
     id="base"
     pagecolor="#ffffff"
     bordercolor="#666666"
     borderopacity="1.0"
     inkscape:pageopacity="0.0"
     inkscape:pageshadow="2"
     inkscape:zoom="0.5404784"
     inkscape:cx="-0.012462579"
     inkscape:cy="285.67841"
     inkscape:document-units="mm"
     inkscape:current-layer="layer1"
     showgrid="false"
     inkscape:window-width="1920"
     inkscape:window-height="1017"
     inkscape:window-x="1912"
     inkscape:window-y="-8"
     inkscape:window-maximized="1"
     fit-margin-top="0"
     fit-margin-left="0"
     fit-margin-right="0"
     fit-margin-bottom="0" />
  <metadata
     id="metadata5">
    <rdf:RDF>
      <cc:Work
         rdf:about="">
        <dc:format>image/svg+xml</dc:format>
        <dc:type
           rdf:resource="http://purl.org/dc/dcmitype/StillImage" />
        <dc:title />
      </cc:Work>
    </rdf:RDF>
  </metadata>
  <g
     inkscape:label="Layer 1"
     inkscape:groupmode="layer"
     id="layer1"
     transform="translate(-36.586189,-70.436586)">
    <path
       sodipodi:type="star"
       style="opacity:1;fill:#f9f9f9;fill-opacity:1;stroke:#656a80;stroke-width:4;stroke-miterlimit:4;stroke-dasharray:none;stroke-dashoffset:0;stroke-opacity:1"
       id="path4573"
       sodipodi:sides="6"
       sodipodi:cx="102.62011"
       sodipodi:cy="146.68599"
       sodipodi:r1="73.940002"
       sodipodi:r2="64.03392"
       sodipodi:arg1="0.52359878"
       sodipodi:arg2="1.0471976"
       inkscape:flatsided="true"
       inkscape:rounded="0"
       inkscape:randomized="0"
       d="m 166.65403,183.65599 -64.03392,36.97 -64.033921,-36.97 0,-73.94 64.033921,-36.970003 64.03392,36.970003 z"
       inkscape:transform-center-x="3.0492663e-06"
       inkscape:transform-center-y="-6.6020762e-06" />
    <flowRoot
       xml:space="preserve"
       id="flowRoot835"
       style="font-style:normal;font-variant:normal;font-weight:normal;font-stretch:normal;font-size:64px;line-height:1.25;font-family:'Segoe UI';-inkscape-font-specification:'Segoe UI';letter-spacing:0px;word-spacing:0px;fill:#000000;fill-opacity:1;stroke:none"><flowRegion
         id="flowRegion837"
         style="font-style:normal;font-variant:normal;font-weight:normal;font-stretch:normal;font-size:64px;font-family:'Segoe UI';-inkscape-font-specification:'Segoe UI'"><rect
           id="rect839"
           width="366.32343"
           height="73.264687"
           x="204.09448"
           y="643.68262"
           style="font-style:normal;font-variant:normal;font-weight:normal;font-stretch:normal;font-size:64px;font-family:'Segoe UI';-inkscape-font-specification:'Segoe UI'" /></flowRegion><flowPara
         id="flowPara841" /></flowRoot>    <path
       inkscape:transform-center-y="-6.6020762e-06"
       inkscape:transform-center-x="3.0492663e-06"
       d="m 166.65403,183.65599 -64.03392,36.97 -64.033921,-36.97 0,-73.94 64.033921,-36.970003 64.03392,36.970003 z"
       inkscape:randomized="0"
       inkscape:rounded="0"
       inkscape:flatsided="true"
       sodipodi:arg2="1.0471976"
       sodipodi:arg1="0.52359878"
       sodipodi:r2="64.03392"
       sodipodi:r1="73.940002"
       sodipodi:cy="146.68599"
       sodipodi:cx="102.62011"
       sodipodi:sides="6"
       id="path840"
       style="opacity:1;fill:none;fill-opacity:0.97979796;stroke:#8c5843;stroke-width:4;stroke-miterlimit:4;stroke-dasharray:none;stroke-dashoffset:0;stroke-opacity:1"
       sodipodi:type="star" />
    <g
       transform="matrix(1.076823,0,0,1.076823,-153.00085,-9.9962013)"
       id="g1025">
      <path
         style="opacity:1;vector-effect:none;fill:#ffffff;fill-opacity:1;stroke:#ffffff;stroke-width:0.11253458;stroke-linecap:butt;stroke-linejoin:miter;stroke-miterlimit:4;stroke-dasharray:none;stroke-dashoffset:0;stroke-opacity:1"
         d="m 268.53665,111.02047 c -0.43672,-0.22094 -0.67696,-0.4978 -0.77774,-0.89628 -0.10394,-0.41096 -0.30208,-0.63106 -0.68978,-0.76621 -0.61826,-0.21553 -1.28183,-1.17684 -1.28183,-1.857 0,-0.78987 0.62882,-1.57672 1.53734,-1.92369 0.79116,-0.30215 0.88389,-0.30273 1.64946,-0.0103 1.24569,0.47573 2.84573,2.4945 2.84573,3.59044 0,0.73437 -0.58811,1.67002 -1.21413,1.93159 -0.79915,0.3339 -1.30688,0.31709 -2.06905,-0.0685 z"
         id="path991"
         inkscape:connector-curvature="0" />
      <path
         style="opacity:1;vector-effect:none;fill:#f5f7f7;fill-opacity:1;stroke:none;stroke-width:0.15914793;stroke-linecap:butt;stroke-linejoin:miter;stroke-miterlimit:4;stroke-dasharray:none;stroke-dashoffset:0;stroke-opacity:1"
         d="m 223.52486,148.89772 c 0.1005,-0.53602 0.46146,-1.84729 0.80214,-2.91394 0.77813,-2.43638 0.78996,-2.69178 0.10771,-2.32665 -0.44382,0.23753 -0.56281,0.17382 -0.82811,-0.44342 -0.4292,-0.99856 -0.40254,-0.98557 -0.96963,-0.47237 -0.67124,0.60747 -1.24127,0.35304 -1.70715,-0.76196 -0.41331,-0.98919 -0.77854,-1.11372 -1.55157,-0.52903 -0.75247,0.56914 -0.85624,0.49985 -1.1806,-0.78829 -0.30366,-1.20592 -0.39116,-1.24937 -1.54996,-0.76969 -0.44166,0.18282 -0.73457,-0.4497 -0.74156,-1.60143 -0.003,-0.55889 0.0806,-0.58071 2.12978,-0.55375 3.13924,0.0413 5.38656,0.3203 4.65449,0.57785 -0.32,0.11258 -0.58181,0.32669 -0.58181,0.4758 0,0.18131 1.13485,0.23252 3.42622,0.15461 3.9657,-0.13483 4.56077,-0.32156 8.14536,-2.55594 1.31553,-0.82002 2.39145,-1.3531 2.39092,-1.18464 -0.003,0.90755 -2.1276,3.26388 -4.03935,4.47965 l -1.00205,0.63725 1.44945,-0.0962 c 2.4177,-0.1605 5.04037,-1.58948 7.57908,-4.12951 1.17438,-1.17499 2.38331,-2.48544 2.6865,-2.9121 l 0.55126,-0.77574 0.008,1.74542 c 0.005,0.95999 0.10011,1.74544 0.21245,1.74544 0.11235,0 0.54738,-0.5875 0.96674,-1.30555 0.6432,-1.10131 0.79547,-1.23159 0.9734,-0.83285 0.33829,0.75815 -2.00904,3.99708 -4.96748,6.85432 -1.51857,1.46662 -2.60716,2.7246 -2.60716,3.01285 0,0.2722 -0.60245,1.20729 -1.33877,2.07799 -1.57377,1.86097 -1.91906,1.99151 -7.84091,2.96435 -2.13331,0.35046 -4.2121,0.76431 -4.61954,0.91967 l -0.74079,0.28246 z"
         id="path993"
         inkscape:connector-curvature="0" />
      <path
         style="opacity:1;vector-effect:none;fill:#ff0000;fill-opacity:1;stroke:none;stroke-width:0.00497337;stroke-linecap:butt;stroke-linejoin:miter;stroke-miterlimit:4;stroke-dasharray:none;stroke-dashoffset:0;stroke-opacity:1"
         d="m 263.06626,109.04759 c -0.0309,-0.0118 -0.0319,-0.0532 -0.003,-0.13814 0.0527,-0.15772 0.18925,-0.34668 0.42288,-0.58531 0.19922,-0.20348 0.39324,-0.36685 0.61091,-0.51441 0.25925,-0.17574 0.3974,-0.23876 0.76308,-0.34811 0.16297,-0.0487 0.23705,-0.0647 0.30032,-0.0647 0.1346,0 0.18572,0.0759 0.22861,0.33939 0.0457,0.2809 0.0488,0.41573 0.011,0.4894 -0.0552,0.10772 -0.16727,0.15856 -0.48013,0.21781 -0.20405,0.0387 -0.27848,0.0557 -0.42337,0.0971 -0.30669,0.0875 -0.56385,0.18566 -0.85609,0.32661 -0.20661,0.0996 -0.31761,0.1449 -0.41911,0.17086 -0.0579,0.0148 -0.12919,0.0192 -0.15461,0.01 z"
         id="path995"
         inkscape:connector-curvature="0" />
      <path
         style="opacity:1;vector-effect:none;fill:#280b0b;fill-opacity:1;stroke:none;stroke-width:0.00994674;stroke-linecap:butt;stroke-linejoin:miter;stroke-miterlimit:4;stroke-dasharray:none;stroke-dashoffset:0;stroke-opacity:1"
         d="m 269.23744,111.37509 c -0.45873,-0.0588 -0.88703,-0.21693 -1.15418,-0.42595 -0.20873,-0.16333 -0.30285,-0.32422 -0.32717,-0.5593 -0.0165,-0.15926 -0.0607,-0.33917 -0.11416,-0.46374 -0.0367,-0.0855 -0.15167,-0.25041 -0.21853,-0.31332 -0.12646,-0.11896 -0.4111,-0.24404 -0.59557,-0.2617 -0.15805,-0.0151 -0.28142,-0.0789 -0.42411,-0.21939 -0.33427,-0.32901 -0.66057,-1.05995 -0.7075,-1.58483 -0.0239,-0.26675 0.0487,-0.60344 0.1932,-0.89674 0.31847,-0.6464 0.97868,-1.13122 1.77614,-1.30427 0.22182,-0.0482 0.74987,-0.0526 0.96863,-0.008 0.79312,0.16105 1.64779,0.78897 2.3583,1.73265 0.64673,0.85894 0.99403,1.82353 0.87867,2.44037 -0.12,0.64168 -0.6019,1.40751 -1.01914,1.6196 -0.23718,0.12056 -0.48096,0.19315 -0.80188,0.23876 -0.18394,0.0261 -0.63017,0.0295 -0.8127,0.006 z"
         id="path997"
         inkscape:connector-curvature="0" />
      <path
         style="opacity:1;vector-effect:none;fill:#c89f4d;fill-opacity:1;stroke:none;stroke-width:0.01989349;stroke-linecap:butt;stroke-linejoin:miter;stroke-miterlimit:4;stroke-dasharray:none;stroke-dashoffset:0;stroke-opacity:1"
         d="m 254.4454,113.80316 c 0.0548,-0.10222 0.30282,-0.46919 0.55122,-0.81548 0.49128,-0.68489 0.57974,-0.83438 0.5168,-0.87327 -0.0923,-0.0571 -0.4728,0.0833 -1.41481,0.52186 -0.34949,0.1627 -0.6552,0.28585 -0.69541,0.28013 -0.0661,-0.009 -0.0599,-0.0229 0.0793,-0.17181 0.0831,-0.0889 0.37595,-0.35798 0.6508,-0.59798 0.39634,-0.34608 0.4854,-0.43831 0.43047,-0.44583 -0.0381,-0.005 -0.50514,0.0275 -1.0379,0.0727 -0.53275,0.0452 -1.00535,0.0814 -1.05022,0.0803 -0.0506,-0.001 0.22552,-0.15333 0.72648,-0.40036 1.07289,-0.52905 1.37571,-0.73163 1.32632,-0.88725 -0.0457,-0.14403 -0.25941,-0.17106 -1.55258,-0.19638 -0.65777,-0.0129 -1.2214,-0.0345 -1.25251,-0.048 -0.0899,-0.0391 -0.0667,-0.0921 0.0809,-0.1843 0.1535,-0.096 0.30704,-0.16244 1.12316,-0.48635 0.3111,-0.12347 0.57719,-0.2357 0.59131,-0.24939 0.0521,-0.0505 -1.0174,-0.42285 -1.21444,-0.42285 -0.12317,0 -0.14618,-0.0813 -0.0516,-0.18257 0.0983,-0.10534 0.2375,-0.17475 0.57086,-0.28467 0.42616,-0.14052 0.54561,-0.28727 0.39238,-0.48206 -0.089,-0.11317 -0.26647,-0.23268 -0.78141,-0.5263 -0.4422,-0.25214 -0.76763,-0.47595 -0.76763,-0.52794 0,-0.0795 0.28226,-0.10721 1.23635,-0.12132 0.54666,-0.008 0.99355,-0.0242 0.99308,-0.0358 -5.4e-4,-0.0116 -0.27828,-0.20294 -0.61738,-0.42515 -0.67884,-0.44487 -1.14898,-0.84457 -1.06257,-0.90338 0.13015,-0.0886 0.82759,-0.0165 1.44847,0.14968 0.43528,0.1165 0.4909,0.12418 0.4909,0.0678 0,-0.0642 -0.17636,-0.31037 -0.63177,-0.88174 -0.21254,-0.26666 -0.41369,-0.54576 -0.44699,-0.62021 -0.17221,-0.38504 0.124,-0.44801 1.25371,-0.26652 0.66826,0.10735 1.05464,0.13409 1.07561,0.0744 0.0211,-0.06 -0.33815,-0.50824 -0.90328,-1.12708 -0.35121,-0.38459 -0.51382,-0.58452 -0.4797,-0.5898 0.0284,-0.004 0.45162,0.0481 0.9405,0.11669 0.48888,0.0686 0.89336,0.12101 0.89885,0.11653 0.005,-0.005 -0.109,-0.17335 -0.25441,-0.37527 -0.26041,-0.36159 -0.45043,-0.70295 -0.45048,-0.80926 -4e-5,-0.0898 0.0941,-0.15584 0.22246,-0.15584 0.20034,0 0.59907,0.12044 1.28053,0.38679 0.67852,0.2652 1.14021,0.42128 1.2461,0.42128 0.0349,0 0.063,-0.022 0.063,-0.0493 0,-0.0582 -0.14506,-0.35271 -0.46931,-0.95271 -0.23544,-0.43568 -0.37,-0.75528 -0.33342,-0.79186 0.0452,-0.0452 0.21688,0.0414 0.64973,0.32789 0.27329,0.1809 0.48632,0.3008 0.52472,0.29535 0.086,-0.0122 0.0971,-0.10991 0.0492,-0.43493 -0.0874,-0.592717 0.061,-0.545116 0.94209,0.30212 0.4824,0.46388 0.79444,0.72162 0.87365,0.72162 0.0986,0 0.1152,-0.37108 0.0406,-0.906 -0.0275,-0.19731 -0.0457,-0.43978 -0.0404,-0.538818 l 0.01,-0.18008 0.18131,0.254878 c 0.0997,0.14019 0.3209,0.47306 0.49149,0.73973 0.34811,0.54414 0.47215,0.69494 0.57162,0.69494 0.16271,0 0.27144,-0.54186 0.3081,-1.535336 0.0215,-0.583777 0.058,-0.880678 0.11488,-0.935867 0.10341,-0.100322 0.34002,0.392716 0.80587,1.679293 0.14805,0.40888 0.27938,0.75541 0.29184,0.77005 0.0125,0.0147 0.17782,-0.27989 0.36747,-0.65453 0.18965,-0.37465 0.35103,-0.68117 0.35864,-0.68117 0.008,0 0.10978,0.29818 0.22707,0.66262 0.11728,0.36444 0.22365,0.66262 0.23638,0.66262 0.0127,0 0.15502,-0.25524 0.31619,-0.5672 l 0.29303,-0.5672 0.0387,0.38134 c 0.14317,1.41159 0.13085,2.15666 -0.0795,4.80957 -0.0897,1.13117 -0.0855,1.11514 -0.29263,1.11514 -0.24676,0 -0.30485,-0.22391 -0.37038,-1.42768 -0.0216,-0.39699 -0.0512,-0.74361 -0.0659,-0.77027 -0.015,-0.0273 -0.0273,0.15642 -0.0283,0.42019 -6.9e-4,0.25777 -0.0157,0.68686 -0.0329,0.95353 -0.0476,0.73971 -0.12485,1.03274 -0.26667,1.01209 -0.15184,-0.0221 -0.23763,-0.30911 -0.66973,-2.24036 -0.41387,-1.84979 -0.61351,-2.61412 -0.66846,-2.55917 -0.0561,0.0561 0.4451,3.12874 0.71982,4.41319 0.15409,0.72048 0.13453,0.85309 -0.096,0.6507 -0.073,-0.0641 -0.1871,-0.24355 -0.31444,-0.49461 -0.1099,-0.21668 -0.20515,-0.40003 -0.21165,-0.40743 -0.04,-0.0455 -0.0272,0.0655 0.0554,0.48214 0.16496,0.83225 0.15719,1.11146 -0.0293,1.05227 -0.10583,-0.0336 -0.21157,-0.19888 -0.31131,-0.48661 -0.28713,-0.82832 -1.48606,-3.12134 -2.26875,-4.33913 -0.17207,-0.26773 -0.41544,-0.55779 -0.468,-0.55779 -0.11512,0 0.0757,0.42525 1.1528,2.56967 1.09963,2.18921 1.34018,2.73285 1.34018,3.02886 0,0.33437 -0.22501,0.12084 -1.07993,-1.02485 -1.30509,-1.74896 -2.32682,-2.94928 -2.68567,-3.15512 -0.32417,-0.18595 -0.32323,-0.0913 0.004,0.39614 0.29214,0.43522 0.9711,1.31169 1.81177,2.33878 1.06476,1.3009 1.46654,1.83113 1.40346,1.85216 -0.0507,0.0169 -0.37844,-0.19005 -0.72159,-0.4556 -0.34063,-0.2636 -0.83212,-0.60464 -0.87137,-0.60464 -0.0722,0 0.0216,0.10724 0.584,0.66815 0.55398,0.55247 0.69294,0.72221 0.63702,0.77814 -0.0428,0.0428 -0.58757,-0.10907 -1.43491,-0.3998 -1.25912,-0.43202 -1.71943,-0.55678 -1.71943,-0.46605 0,0.0937 0.92924,0.4998 1.91437,0.83657 0.36847,0.12595 0.71032,0.24989 0.75967,0.2754 0.12234,0.0633 0.21403,0.17015 0.18553,0.21626 -0.0422,0.0683 -0.28426,0.15441 -0.57729,0.20535 -0.47354,0.0823 -0.4388,0.10872 0.19398,0.14741 0.47712,0.0291 0.75958,0.0723 0.853,0.13034 0.0431,0.0268 0.0431,0.0351 0,0.0751 -0.0902,0.0836 -0.32262,0.15097 -0.86532,0.25071 -0.67663,0.12436 -1.43025,0.31521 -1.7868,0.4525 -0.55127,0.21227 -1.71585,0.84754 -2.11256,1.1524 -0.16397,0.12601 -0.24065,0.21823 -0.20831,0.25057 0.0351,0.0351 0.56207,-0.15153 1.65632,-0.58656 1.40915,-0.56022 2.11021,-0.79721 2.71538,-0.91794 0.26484,-0.0528 0.48712,-0.0905 0.49394,-0.0836 0.007,0.007 -0.0907,0.1228 -0.21665,0.2577 -0.14643,0.1568 -0.28965,0.27476 -0.39698,0.32697 -0.17067,0.083 -0.49943,0.14579 -0.76981,0.14694 -0.23106,6.9e-4 -0.74075,0.14371 -1.15537,0.32351 -0.79948,0.3467 -1.67579,0.90059 -2.80741,1.77448 -0.80841,0.62429 -1.21802,0.90868 -1.30875,0.90868 -0.0562,0 -0.0528,-0.0163 0.038,-0.18586 z"
         id="path999"
         inkscape:connector-curvature="0" />
      <path
         style="opacity:1;vector-effect:none;fill:#280b0b;fill-opacity:1;stroke:none;stroke-width:0.00994674;stroke-linecap:butt;stroke-linejoin:miter;stroke-miterlimit:4;stroke-dasharray:none;stroke-dashoffset:0;stroke-opacity:1"
         d="m 265.48767,116.70769 c -0.0945,-0.0348 -0.18923,-0.0869 -0.42747,-0.23524 -0.40199,-0.25024 -0.67536,-0.38098 -0.88133,-0.4215 -0.12413,-0.0244 -0.20575,-0.0859 -0.34652,-0.26089 -0.32842,-0.40832 -0.79114,-1.18253 -1.24379,-2.08111 -0.47539,-0.94372 -0.74305,-1.61494 -0.81845,-2.0525 -0.15725,-0.91245 0.0126,-2.35726 0.34909,-2.96944 0.22205,-0.40396 0.9922,-1.12897 1.52159,-1.4324 0.26126,-0.14975 0.59348,-0.21929 1.10434,-0.23118 0.19111,-0.005 0.52104,-0.01 0.55455,-0.003 0.0584,0.0129 -0.10056,0.0264 -0.44514,0.14807 -0.42052,0.14847 -0.63899,0.25275 -0.91749,0.43798 -0.5818,0.38695 -0.88502,0.724 -1.16368,1.29353 -0.14126,0.2887 -0.23876,0.56097 -0.32122,0.89695 -0.23918,0.97452 -0.20987,2.02137 0.0812,2.90098 0.18831,0.56905 0.45117,0.98087 0.91322,1.43073 0.44039,0.42877 0.95327,0.7498 1.45493,0.91072 0.23727,0.0761 0.39642,0.10228 0.70018,0.11514 0.2796,0.0118 0.40968,0.039 0.43769,0.0913 0.0235,0.044 0.01,0.12574 -0.0424,0.25463 -0.0601,0.14805 -0.14497,0.46705 -0.21019,0.79061 -0.0845,0.41927 -0.12744,0.47892 -0.29911,0.41567 z"
         id="path1001"
         inkscape:connector-curvature="0"
         sodipodi:nodetypes="ccccccccccccccccccccccc" />
      <path
         style="opacity:1;vector-effect:none;fill:#4b6a87;fill-opacity:1;stroke:none;stroke-width:0.00994674;stroke-linecap:butt;stroke-linejoin:miter;stroke-miterlimit:4;stroke-dasharray:none;stroke-dashoffset:0;stroke-opacity:1"
         d="m 271.0062,114.70346 c -0.82218,-0.006 -1.64501,0.0399 -2.46613,-0.0238 -0.37441,-0.0184 -0.74923,-0.0444 -1.11952,-0.10481 -0.27755,-0.2605 -0.0815,-0.65821 -0.025,-0.97037 0.12312,-0.69595 -0.016,-1.41475 0.14575,-2.10662 0.30412,-0.2208 0.65614,0.0114 0.961,0.10298 0.67936,0.17565 1.4167,0.2344 2.08865,-0.005 0.62046,-0.0825 1.13537,0.34595 1.66766,0.58867 1.0803,0.58622 2.12764,1.26563 2.98728,2.15212 0.24589,0.34045 -0.2515,0.44649 -0.49309,0.35519 -0.77253,-0.0404 -1.54634,-0.11673 -2.31992,-0.0486 -0.53866,0.023 -0.86391,0.0196 -1.42663,0.0609 z"
         id="path1003"
         inkscape:connector-curvature="0"
         sodipodi:nodetypes="ccccccccccccc" />
      <path
         style="opacity:1;vector-effect:none;fill:#ff0000;fill-opacity:1;stroke:none;stroke-width:0.00994674;stroke-linecap:butt;stroke-linejoin:miter;stroke-miterlimit:4;stroke-dasharray:none;stroke-dashoffset:0;stroke-opacity:1"
         d="m 266.5871,120.12031 c -0.34165,-0.12344 -0.84943,-0.53716 -1.53148,-1.24778 -0.69933,-0.72862 -1.24799,-1.57011 -1.2908,-1.97969 -0.0235,-0.2254 0.0963,-0.3241 0.32247,-0.26553 0.23436,0.0607 0.72236,0.25725 1.11844,0.45048 0.63489,0.30975 1.22123,0.81917 1.59137,1.38262 0.13389,0.2038 0.21645,0.37065 0.28668,0.57936 0.05,0.14862 0.059,0.19864 0.0657,0.36609 0.009,0.23119 -0.0197,0.40057 -0.0947,0.55417 -0.0907,0.18576 -0.24795,0.23964 -0.46761,0.16028 z"
         id="path1005"
         inkscape:connector-curvature="0" />
      <path
         style="opacity:1;vector-effect:none;fill:#81b6d6;fill-opacity:1;stroke:none;stroke-width:0.00994674;stroke-linecap:butt;stroke-linejoin:miter;stroke-miterlimit:4;stroke-dasharray:none;stroke-dashoffset:0;stroke-opacity:1"
         d="m 266.61733,111.65104 c -0.22623,-0.0845 -0.38499,-0.27265 -0.4601,-0.54537 -0.0458,-0.16633 -0.0385,-0.45264 0.0163,-0.63708 0.0856,-0.28829 0.24298,-0.56647 0.42103,-0.7444 0.17063,-0.17052 0.33226,-0.21585 0.46243,-0.12971 0.23417,0.15497 0.41984,0.6486 0.41912,1.11427 -3.6e-4,0.22447 -0.0283,0.35901 -0.1113,0.53617 -0.076,0.16218 -0.21876,0.31703 -0.34902,0.37856 -0.0998,0.0471 -0.30755,0.0615 -0.39848,0.0276 z m 0.46212,-0.85363 c 0.10294,-0.0469 0.15272,-0.32602 0.099,-0.55508 -0.0805,-0.34325 -0.30123,-0.34859 -0.43093,-0.0104 -0.046,0.11987 -0.0499,0.30976 -0.008,0.3884 0.0382,0.0718 0.0998,0.12853 0.17951,0.16526 0.0759,0.035 0.10514,0.0371 0.16061,0.0118 z"
         id="path1007"
         inkscape:connector-curvature="0" />
      <path
         style="opacity:1;vector-effect:none;fill:#f5f7f7;fill-opacity:1;stroke:none;stroke-width:0.00994674;stroke-linecap:butt;stroke-linejoin:miter;stroke-miterlimit:4;stroke-dasharray:none;stroke-dashoffset:0;stroke-opacity:1"
         d="m 265.27773,114.64471 c -0.58354,-0.0755 -1.25437,-0.53377 -1.83106,-1.25095 -0.66029,-0.82113 -0.86607,-1.57923 -0.69704,-2.56776 0.11621,-0.67962 0.82119,-1.49439 1.63186,-1.88599 0.23532,-0.11368 0.39123,-0.16442 0.64646,-0.21043 0.24822,-0.0447 0.45585,-0.048 0.56921,-0.009 0.10332,0.0356 0.21775,0.13577 0.34284,0.30016 0.11738,0.15427 0.18765,0.27901 0.21175,0.37587 0.0274,0.11022 0.001,0.20787 -0.13056,0.48527 -0.20736,0.43674 -0.28609,0.75131 -0.26819,1.07151 0.0253,0.45343 0.22836,0.76101 0.58921,0.89272 0.0874,0.0319 0.15669,0.0421 0.36438,0.0534 0.21741,0.0118 0.26781,0.0196 0.3313,0.0511 0.1211,0.0601 0.13969,0.11486 0.13879,0.40888 -6.8e-4,0.22545 -0.005,0.25917 -0.0613,0.48171 -0.11405,0.45066 -0.2838,0.86702 -0.46286,1.13533 -0.11798,0.17678 -0.36612,0.41779 -0.51814,0.50325 -0.26626,0.14968 -0.55091,0.20449 -0.85665,0.16494 z"
         id="path1009"
         inkscape:connector-curvature="0" />
      <path
         style="opacity:1;vector-effect:none;fill:#c2ccd8;fill-opacity:1;stroke:none;stroke-width:0.05626729;stroke-linecap:butt;stroke-linejoin:miter;stroke-miterlimit:4;stroke-dasharray:none;stroke-dashoffset:0;stroke-opacity:1"
         d="m 253.66713,148.31279 c 0.0303,-0.17529 0.26326,-0.7924 0.51771,-1.37134 0.94474,-2.14951 1.19883,-2.81376 1.45174,-3.79531 0.33378,-1.2954 0.69103,-3.22635 0.61159,-3.30579 -0.0339,-0.0339 -0.0745,-0.0445 -0.0903,-0.0235 -0.18217,0.24231 -1.91871,2.18667 -2.0753,2.32366 l -0.209,0.18285 0.0661,-0.27427 c 0.0364,-0.15085 0.27205,-0.74016 0.52368,-1.30959 0.25164,-0.56942 0.4339,-1.09688 0.40502,-1.17213 -0.0636,-0.16579 -0.0837,-0.15245 -2.06357,1.37061 -0.77884,0.59913 -1.70449,1.28392 -2.05701,1.52174 -0.70432,0.47516 -2.06761,1.22446 -2.41762,1.32878 -0.21188,0.0631 -0.20753,0.0474 0.0914,-0.33102 0.17265,-0.21854 0.83619,-1.01321 1.47454,-1.76595 1.29574,-1.52795 1.56487,-1.93451 1.36311,-2.0592 -0.24852,-0.15359 -1.61343,0.44345 -3.28047,1.43497 -0.46648,0.27745 -0.87063,0.48198 -0.89811,0.4545 -0.0835,-0.0835 0.18397,-0.52421 1.15478,-1.90286 0.51052,-0.725 1.06281,-1.54733 1.22729,-1.82739 0.29152,-0.49634 0.55828,-1.16128 0.49235,-1.22722 -0.0181,-0.0181 -0.36158,0.16865 -0.76335,0.41492 -0.40178,0.24627 -0.79083,0.44894 -0.86455,0.45038 -0.0737,0.001 0.65651,-0.79174 1.62275,-1.76262 0.96625,-0.97087 1.75681,-1.81984 1.75681,-1.88659 0,-0.19262 -0.69582,-0.0568 -2.08243,0.40657 -0.67674,0.22613 -1.2533,0.41114 -1.28126,0.41114 -0.20508,0 1.38721,-1.34114 3.63796,-3.06416 2.4533,-1.87807 2.85243,-2.28905 1.94273,-2.0004 -1.10467,0.35053 -3.34659,0.68855 -3.58587,0.54066 -0.11732,-0.0725 0.22593,-0.34183 1.79639,-1.40955 0.61226,-0.41626 1.18767,-0.83913 1.2787,-0.93973 0.15995,-0.17673 0.15959,-0.18722 -0.0107,-0.31176 -0.28995,-0.21202 -0.97927,-0.14811 -2.06117,0.1911 -0.98997,0.31039 -1.82846,0.4152 -1.82846,0.22856 0,-0.0503 0.0576,-0.0914 0.12806,-0.0914 0.0704,0 0.34812,-0.10272 0.6171,-0.22826 0.26898,-0.12554 0.7256,-0.27776 1.01473,-0.33827 0.56117,-0.11745 0.63438,-0.22098 0.34283,-0.48483 -0.10057,-0.091 -0.18285,-0.19571 -0.18285,-0.23265 0,-0.037 0.45164,-0.22177 1.00364,-0.41072 1.18082,-0.40419 1.58043,-0.62344 1.53958,-0.8447 -0.0746,-0.40408 -1.30169,-0.6533 -3.30406,-0.67106 -0.66261,-0.006 -1.47216,-0.039 -1.79899,-0.0735 -0.58032,-0.0614 -0.58787,-0.0655 -0.32211,-0.17778 0.57337,-0.24214 1.60958,-0.39631 2.98856,-0.44463 0.78773,-0.0276 1.48712,-0.0864 1.55419,-0.13064 0.16502,-0.10885 -0.0369,-0.26027 -1.02084,-0.76524 -0.42741,-0.21936 -0.94166,-0.50264 -1.14279,-0.62952 l -0.36569,-0.23068 0.46386,-0.003 c 0.62748,-0.004 2.01787,0.2415 2.9645,0.52313 0.4274,0.12716 0.89649,0.25155 1.04241,0.27643 0.29011,0.0495 0.29196,0.0244 0.0438,-0.59322 -0.0649,-0.1615 -0.0911,-0.3205 -0.0583,-0.35333 0.0777,-0.0776 1.28132,0.572 2.24239,1.2103 0.4159,0.27621 1.29802,0.95257 1.96028,1.50302 0.66226,0.55045 1.48845,1.19511 1.836,1.43258 0.59735,0.40814 0.67014,0.43348 1.33143,0.46352 0.52786,0.0239 0.82709,-0.0131 1.21923,-0.15089 1.08871,-0.38265 1.46128,-0.98194 1.36748,-2.0164 -0.0883,-0.97321 -0.55676,-1.72232 -2.36417,-3.77422 -2.01273,-2.28497 -2.68063,-3.55549 -2.80034,-5.34475 -0.09,-1.34561 0.32657,-2.90506 0.96866,-3.66812 0.28702,-0.34111 0.47681,-0.59329 0.44977,-0.0664 -0.0318,0.61921 0.62033,1.99637 1.40503,3.08925 0.67025,0.93348 0.75943,0.9467 0.77684,1.71616 0.11934,1.06265 0.65026,2.03058 1.74632,3.11176 0.63096,0.62239 1.56079,1.17557 1.97599,1.17557 0.58137,0 1.58534,0.80896 2.2496,1.81263 0.49374,0.74602 0.66139,1.22637 0.79695,2.2835 0.20626,1.60828 -0.16807,3.12193 -1.42881,5.77753 -0.83919,1.76765 -1.1633,2.54965 -1.70505,4.11389 -0.20024,0.57817 -0.39668,1.10949 -0.43652,1.18069 -0.0826,0.14767 -0.18409,-0.26659 -0.41114,-1.67887 -0.0804,-0.50035 -0.16183,-0.9253 -0.18087,-0.94434 -0.019,-0.019 -0.0805,0.20521 -0.13668,0.49833 -0.38575,2.01407 -0.78145,3.41595 -1.1971,4.24102 -0.46255,0.91816 -0.51719,0.88036 -0.56672,-0.39204 -0.0638,-1.63923 -0.17611,-1.77709 -0.68598,-0.84202 -0.66352,1.21686 -0.99174,2.58942 -1.62856,6.81041 -0.42573,2.8218 -0.59956,3.78766 -0.75595,4.20041 -0.1753,0.46264 -0.22796,-0.65312 -0.1769,-3.74833 0.0278,-1.68447 0.0209,-3.16551 -0.0154,-3.29122 -0.0609,-0.21135 -0.10425,-0.17005 -0.575,0.54854 -0.27999,0.4274 -0.67683,1.10621 -0.88187,1.50848 -0.20504,0.40225 -0.37409,0.68604 -0.37567,0.63062 -0.001,-0.0554 0.20103,-0.74089 0.45024,-1.52329 0.50563,-1.58741 0.82681,-2.78548 0.82681,-3.08422 0,-0.67779 -0.89036,0.63059 -4.70022,6.90694 -0.79509,1.30984 -1.56773,2.52348 -1.71697,2.69698 l -0.27134,0.31544 z"
         id="path1011"
         inkscape:connector-curvature="0"
         sodipodi:nodetypes="cccscccccccccccccsccccccscscccccccsssccsccccccccccccccccscccccccssccssccsccsccccccccccccscccc" />
      <path
         style="opacity:1;vector-effect:none;fill:#888da1;fill-opacity:1;stroke:none;stroke-width:0.05626729;stroke-linecap:butt;stroke-linejoin:miter;stroke-miterlimit:4;stroke-dasharray:none;stroke-dashoffset:0;stroke-opacity:1"
         d="m 239.21082,146.63105 c 0.0311,-0.0811 0.26711,-0.45943 0.52446,-0.84079 0.25734,-0.38137 0.44563,-0.71566 0.41843,-0.74286 -0.0272,-0.0272 -0.51412,0.126 -1.08202,0.34045 -0.56791,0.21446 -1.23621,0.41064 -1.48511,0.43598 l -0.45254,0.046 0.29484,-0.37226 c 0.16216,-0.20474 0.57271,-0.6736 0.91233,-1.0419 0.76811,-0.83296 1.11497,-1.25486 1.11497,-1.35615 0,-0.043 -0.0802,-0.1037 -0.17818,-0.1348 -0.0989,-0.0314 -0.15748,-0.1105 -0.13164,-0.17784 0.0256,-0.0667 0.7373,-0.68015 1.58157,-1.36322 2.00988,-1.62612 2.91344,-2.58149 3.60793,-3.8148 0.59376,-1.05442 1.02175,-1.6628 1.79647,-2.55369 0.90552,-1.04131 1.03892,-1.34646 0.54548,-1.24777 l -0.27504,0.055 0.17407,-0.3407 c 0.0957,-0.18739 0.40464,-0.62181 0.68644,-0.96537 0.28181,-0.34357 0.51238,-0.66241 0.51238,-0.70853 0,-0.2437 -0.4935,0.0647 -1.29305,0.80816 l -0.42453,0.39472 -0.25014,-1.07565 -0.25013,-1.07565 -0.71643,1.43062 c -0.39404,0.78684 -0.75228,1.45277 -0.79607,1.47984 -0.0438,0.0271 -0.12367,-0.66459 -0.17747,-1.53704 -0.13903,-2.2544 -0.29518,-2.44272 -0.82385,-0.99356 -0.40761,1.11731 -1.16353,2.18456 -2.48551,3.50919 -1.20244,1.20484 -2.24746,2.0369 -3.47635,2.76789 -1.09403,0.65078 -3.20596,1.73154 -3.2661,1.67141 -0.0289,-0.0289 0.26268,-0.38779 0.64805,-0.79744 1.00974,-1.07336 1.48458,-1.72359 1.882,-2.57713 0.64749,-1.39059 1.07682,-2.81313 0.84739,-2.80766 -0.0377,6.8e-4 -0.4594,0.31094 -0.93708,0.68897 -2.61057,2.066 -5.49023,3.51711 -7.95379,4.00804 -1.19441,0.23802 -3.55806,0.54763 -3.79003,0.49645 -0.096,-0.0212 0.009,-0.2187 0.36494,-0.6885 0.5484,-0.72319 0.61309,-0.89843 0.29386,-0.79602 -0.11313,0.0363 -0.34969,0.0998 -0.52568,0.14112 -0.52089,0.12229 -3.52247,0.0884 -4.72476,-0.0534 -2.68348,-0.31645 -6.78818,-0.26141 -8.98865,0.12053 -0.52797,0.0916 -0.97412,0.13053 -0.99144,0.0864 -0.10953,-0.27886 1.93167,-3.26996 3.25118,-4.76418 1.87112,-2.11887 3.75675,-3.5916 10.12804,-7.91029 0.89363,-0.60573 2.18681,-1.18654 5.11968,-2.29942 3.80966,-1.44557 4.31788,-1.56893 9.69081,-2.35228 l 4.20545,-0.61314 2.7884,-0.002 c 2.50261,-0.002 2.8774,0.0174 3.65691,0.18995 1.57251,0.34803 3.51194,1.22148 4.66542,2.10114 0.24763,0.18884 0.44085,0.3482 0.42939,0.35412 -0.0115,0.006 -0.43225,-0.017 -0.93508,-0.051 -1.4583,-0.0985 -3.25806,0.0976 -3.56549,0.38861 -0.1548,0.14653 0.19817,0.32704 1.40216,0.71705 1.08683,0.35205 1.53968,0.53576 1.34053,0.5438 -0.55897,0.0226 -2.50796,0.29302 -2.96394,0.41126 -0.62982,0.16334 -1.46554,0.55175 -1.83603,0.85334 l -0.22828,0.18583 0.24646,0.0944 c 0.13556,0.0519 1.27005,0.1772 2.52109,0.27843 1.25105,0.10123 2.36992,0.21931 2.48639,0.26239 0.18803,0.0696 0.14625,0.10217 -0.37265,0.29091 -1.61082,0.58591 -2.00859,0.75825 -1.97673,0.85647 0.0189,0.0582 0.20667,0.1664 0.41733,0.24049 l 0.383,0.13471 -0.66395,0.3285 c -0.36518,0.18067 -0.65463,0.3743 -0.64322,0.43029 0.0114,0.056 -0.12319,0.1493 -0.29909,0.20735 -0.3113,0.10274 -0.77301,0.6344 -0.77301,0.89013 0,0.14506 0.0939,0.12494 1.85883,-0.39816 0.74581,-0.22104 1.41847,-0.40189 1.49481,-0.40189 0.0763,0 -0.0813,0.14794 -0.35035,0.32877 -0.78213,0.52568 -1.70257,1.30905 -2.14072,1.82191 -0.223,0.26101 -0.40545,0.50099 -0.40545,0.53329 0,0.0939 0.5604,0.0689 1.8774,-0.0837 0.67579,-0.0784 1.40406,-0.12977 1.61839,-0.11428 l 0.38968,0.0282 -0.50283,0.2627 c -1.70999,0.89337 -5.4664,4.01502 -5.25095,4.36362 0.10244,0.16576 1.06535,0.035 2.05115,-0.27854 0.47769,-0.15193 0.90911,-0.27696 0.95872,-0.27785 0.13871,-0.003 -2.36859,2.48692 -3.24429,3.22112 -1.18236,0.99132 -1.14572,0.91957 -0.443,0.86744 0.48728,-0.0361 0.80349,-0.13833 1.58879,-0.51346 0.53924,-0.25758 0.99798,-0.46834 1.01942,-0.46834 0.0867,0 -1.12923,1.68779 -2.20642,3.06266 -0.63033,0.80452 -1.22851,1.62981 -1.32928,1.83398 -0.23632,0.47879 -0.46432,0.68839 -1.7345,1.59451 -1.4773,1.0539 -3.60416,2.29922 -4.29123,2.51262 -0.17901,0.0556 -0.20909,0.041 -0.16296,-0.0792 z"
         id="path1013"
         inkscape:connector-curvature="0" />
      <path
         style="opacity:1;vector-effect:none;fill:#656a80;fill-opacity:1;stroke:none;stroke-width:0.03978698;stroke-linecap:butt;stroke-linejoin:miter;stroke-miterlimit:4;stroke-dasharray:none;stroke-dashoffset:0;stroke-opacity:1"
         d="m 220.22821,195.81163 c -0.87027,-0.91348 -5.22438,-2.85356 -6.74601,-3.00586 -0.83783,-0.0839 -1.41794,-0.42941 -3.00306,-1.78881 -1.05303,-0.90308 -1.58436,-1.10718 -2.8851,-1.10828 -0.57601,-5.4e-4 -0.95327,0.0346 -1.3137,0.12232 -0.52517,0.12775 -0.63883,0.11072 -0.78263,-0.11725 -0.0486,-0.077 -0.0482,-0.14187 10e-4,-0.22193 0.11866,-0.19165 0.84644,-0.51342 1.63445,-0.72266 0.41325,-0.10974 0.96956,-0.25806 1.23622,-0.32961 1.07015,-0.28717 2.06555,-0.92623 2.62073,-1.68253 0.29615,-0.40344 0.80914,-1.51539 1.89219,-4.10149 0.4616,-1.1022 1.02001,-2.41127 1.24092,-2.90905 0.59379,-1.33803 0.99971,-2.375 1.46768,-3.74944 0.77617,-2.27961 1.33023,-3.51577 2.19573,-4.89883 0.92516,-1.47839 1.22716,-2.45286 1.47531,-4.76049 0.15376,-1.42991 0.15299,-1.42807 0.93338,-2.23549 0.30928,-0.31999 0.79312,-0.89939 1.07519,-1.28755 0.9259,-1.27414 2.27932,-3.06752 3.60949,-4.78282 2.57063,-3.31495 3.26342,-4.3548 3.55459,-5.33527 0.14691,-0.49472 0.13784,-1.73828 -0.0182,-2.49318 -0.0662,-0.31999 -0.11656,-0.58578 -0.11205,-0.59064 0.005,-0.005 0.96821,-0.20249 2.14153,-0.43919 2.69194,-0.54305 4.50713,-0.98747 5.56281,-1.36197 0.45426,-0.16115 0.87935,-0.27604 0.94465,-0.25532 0.57235,0.18166 -1.02328,1.77501 -3.65683,3.65161 -1.85685,1.32315 -2.80674,2.11123 -4.08291,3.3874 -2.14847,2.14848 -3.73447,4.38412 -5.81827,8.20155 -1.08128,1.98084 -1.31757,2.62458 -1.32153,3.6003 -0.002,0.47779 -0.15885,1.11484 -0.37027,1.50328 -0.0953,0.17519 -0.40741,0.55589 -0.69344,0.84599 -0.28605,0.29011 -0.62952,0.69306 -0.76328,0.89546 -0.90333,1.36695 -4.57789,8.65485 -6.17034,12.23791 -1.54735,3.48158 -2.03158,6.62593 -1.27709,8.29283 0.16865,0.37259 0.78978,1.06776 1.0952,1.22574 0.11996,0.062 0.50789,0.12104 1.03434,0.1573 2.26427,0.15597 4.66628,1.05271 5.69082,2.12454 0.23166,0.24236 0.24175,0.26564 0.097,0.22357 -0.21667,-0.0629 -0.51982,-0.24841 -1.08334,-0.66275 -0.84666,-0.62254 -1.2033,-0.75139 -2.27824,-0.82311 l -0.61414,-0.041 0.97266,0.50888 c 1.17239,0.61337 1.50113,0.83203 1.97742,1.31531 0.37813,0.38367 0.8317,1.17818 0.8317,1.45688 0,0.20337 -0.0671,0.19283 -0.29497,-0.0464 z"
         id="path1015"
         inkscape:connector-curvature="0" />
      <path
         style="opacity:1;vector-effect:none;fill:#656a80;fill-opacity:1;stroke:none;stroke-width:0.03978698;stroke-linecap:butt;stroke-linejoin:miter;stroke-miterlimit:4;stroke-dasharray:none;stroke-dashoffset:0;stroke-opacity:1"
         d="m 248.06224,191.67659 c 0,-0.38963 0.79424,-1.01458 2.74744,-2.16184 0.53332,-0.31327 0.9807,-0.57866 0.99416,-0.58975 0.0135,-0.0111 -0.0532,-0.29038 -0.14799,-0.62061 -0.0949,-0.33024 -0.28831,-1.23362 -0.42991,-2.00753 -0.44163,-2.4139 -0.60222,-2.77368 -2.56795,-5.75293 -1.85483,-2.81117 -5.15639,-8.01867 -5.46096,-8.61351 -0.0546,-0.10667 -0.47923,-0.62231 -0.94357,-1.14587 -0.46435,-0.52357 -1.00304,-1.16356 -1.19711,-1.42221 -1.68602,-2.24713 -2.42287,-5.03998 -2.853,-10.81358 -0.25289,-3.3946 -0.30276,-3.98913 -0.3931,-4.68681 -0.1465,-1.13144 -0.32405,-1.81306 -0.7523,-2.88817 -0.21494,-0.53963 -0.37494,-1.02247 -0.35556,-1.07299 0.0428,-0.11137 2.04205,-1.7923 2.13178,-1.7923 0.0356,0 0.0463,0.0781 0.0244,0.17777 -0.20579,0.93768 -0.2459,1.52226 -0.21404,3.11916 0.0513,2.57054 0.429,5.31333 1.20688,8.76398 0.60052,2.66388 1.05384,3.74148 2.12946,5.0619 1.71703,2.10785 2.03172,2.69388 2.23271,4.15784 0.20642,1.50348 0.24738,1.71341 0.43612,2.23536 0.22027,0.60915 1.15809,2.48843 1.86245,3.73214 1.2376,2.18527 2.36572,3.79141 5.13092,7.30496 1.62311,2.06238 2.53917,3.34134 2.94397,4.11027 0.36387,0.69119 0.51469,0.8765 0.8157,1.00227 0.55618,0.23239 0.80282,0.24807 3.94013,0.25058 3.57661,0.003 3.40661,-0.0222 4.54591,0.67047 l 0.60252,0.36633 -0.79646,0.0419 c -0.43806,0.023 -1.26918,0.0629 -1.84695,0.0887 -0.57777,0.0257 -1.05029,0.0651 -1.05004,0.0874 1.8e-4,0.0224 0.32752,0.13697 0.72726,0.25472 0.88091,0.25948 1.57028,0.58792 1.85878,0.88557 0.19144,0.19752 0.20199,0.22629 0.0976,0.26633 -0.0643,0.0247 -0.4546,-0.007 -0.86723,-0.0695 -0.41264,-0.0629 -1.01206,-0.15359 -1.33206,-0.20145 -1.12907,-0.16887 -3.18749,-0.29921 -4.88282,-0.30918 -1.61976,-0.01 -1.72542,-0.003 -1.89899,0.11921 -0.59178,0.41628 -0.6868,0.43236 -1.34163,0.22709 -0.71647,-0.22458 -0.7248,-0.22267 -3.26555,0.7493 -0.96623,0.36964 -1.77349,0.67207 -1.79392,0.67207 -0.0204,0 -0.0371,-0.0887 -0.0371,-0.19701 z"
         id="path1017"
         inkscape:connector-curvature="0" />
      <path
         style="opacity:1;vector-effect:none;fill:#8c5843;fill-opacity:1;stroke:none;stroke-width:0.01989349;stroke-linecap:butt;stroke-linejoin:miter;stroke-miterlimit:4;stroke-dasharray:none;stroke-dashoffset:0;stroke-opacity:1"
         d="m 195.49239,163.06347 c -0.45023,-0.10602 -0.56963,-0.37289 -0.38231,-0.85447 0.1105,-0.2841 0.1191,-0.33934 0.0618,-0.3967 -0.052,-0.052 -0.47437,-0.0486 -1.2218,0.01 -0.32889,0.0256 -0.63996,0.0471 -0.69128,0.0476 l -0.0933,6.8e-4 0.0183,-0.55758 c 0.0192,-0.58374 0.0474,-0.74796 0.21981,-1.28145 0.30836,-0.95415 0.7741,-1.87514 1.38007,-2.72899 0.14918,-0.21022 0.26478,-0.38867 0.25689,-0.39657 -0.008,-0.008 -0.24327,0.0231 -0.52305,0.0689 -0.27979,0.0458 -0.55467,0.0788 -0.61084,0.0733 -0.0877,-0.009 -0.10349,-0.0239 -0.11183,-0.10927 -0.0118,-0.12067 0.17096,-0.67274 0.38972,-1.17739 1.02538,-2.36534 3.3324,-5.99718 5.25624,-8.27465 1.1127,-1.31725 5.72465,-5.61438 7.93874,-7.39685 1.0962,-0.8825 2.4555,-1.71818 2.79475,-1.71818 0.0621,0 0.0987,0.0164 0.0987,0.0443 0,0.0788 -0.41307,0.7296 -0.93613,1.47484 -1.1052,1.57464 -1.6014,2.41787 -1.66803,2.83458 -0.0273,0.17074 0.0423,0.24665 0.19929,0.21719 0.061,-0.0114 0.10995,-0.007 0.10995,0.009 0,0.17081 -0.27337,0.80261 -0.96212,2.22357 -0.91132,1.88019 -1.42422,3.09417 -1.6402,3.88222 -0.2389,0.87168 -0.42652,1.94624 -0.45653,2.61468 -0.0192,0.42709 0.007,0.59797 0.0933,0.59797 0.0876,0 0.59987,-0.44981 1.67058,-1.46693 0.56885,-0.54038 0.90514,-0.84068 0.92225,-0.82357 0.008,0.008 -0.0801,0.36961 -0.19482,0.80462 -0.40998,1.55515 -0.55976,2.56145 -0.68061,4.57271 l -0.0563,0.93736 -0.74455,0.82423 c -2.22897,2.46753 -3.69056,3.89649 -4.98216,4.87092 -0.33452,0.25238 -0.97953,0.67443 -1.07534,0.70363 -0.11494,0.035 -0.16815,-0.033 -0.16815,-0.21504 0,-0.38179 -0.0651,-0.37981 -1.3492,0.041 -0.54681,0.17919 -1.13966,0.36083 -1.31743,0.40366 -0.65436,0.15762 -1.24361,0.21115 -1.54447,0.14031 z"
         id="path1019"
         inkscape:connector-curvature="0" />
      <path
         style="opacity:1;vector-effect:none;fill:#c89f4d;fill-opacity:1;stroke:none;stroke-width:0.01989349;stroke-linecap:butt;stroke-linejoin:miter;stroke-miterlimit:4;stroke-dasharray:none;stroke-dashoffset:0;stroke-opacity:1"
         d="m 208.85573,156.00977 c -0.0194,-0.0235 -0.0524,-0.12162 -0.0732,-0.21818 -0.0374,-0.17322 -0.0339,-0.45764 0.0246,-2.06646 0.0209,-0.57545 0.0196,-0.59615 -0.0369,-0.54949 -0.0323,0.0267 -0.30928,0.38303 -0.61551,0.79191 -0.30623,0.40888 -0.5865,0.77016 -0.62283,0.80282 -0.10717,0.0964 -0.17614,0.0555 -0.26467,-0.1568 -0.0771,-0.18497 -0.0806,-0.222 -0.0791,-0.83996 0.001,-0.59754 0.009,-0.68314 0.10345,-1.13129 0.18981,-0.90368 0.6595,-2.43166 1.04821,-3.41006 0.0883,-0.22223 0.29759,-0.66786 0.46511,-0.99033 0.16752,-0.32245 0.30459,-0.60245 0.30459,-0.62221 0,-0.0808 -0.1966,-0.0281 -0.43929,0.11777 -0.50016,0.3007 -1.17917,0.84944 -2.11841,1.71196 -1.00995,0.92746 -1.1489,0.95645 -0.95126,0.19846 0.37339,-1.432 1.20502,-3.23449 2.17415,-4.71224 0.38828,-0.59206 0.73022,-1.03896 1.46072,-1.90906 0.4672,-0.55648 0.57211,-0.6986 0.52761,-0.7147 -0.0306,-0.0111 -0.27072,-0.0391 -0.53371,-0.0623 -0.39854,-0.0352 -0.47508,-0.0502 -0.45974,-0.0902 0.039,-0.1016 1.14271,-1.89142 1.48861,-2.41395 0.51701,-0.78104 0.83994,-1.2187 1.33493,-1.80918 l 0.43277,-0.51625 0.35997,0.0101 c 1.25057,0.0352 2.54064,0.0893 2.55863,0.10729 0.0116,0.0116 0.0483,0.36771 0.0816,0.79133 0.0332,0.42362 0.1007,1.21216 0.14986,1.75229 l 0.0894,0.98206 0.61498,-0.019 c 0.66439,-0.0205 0.94153,-0.066 1.25219,-0.20541 0.13664,-0.0613 0.19968,-0.0753 0.22497,-0.0501 0.0193,0.0193 0.0471,0.1634 0.0616,0.32019 0.0146,0.15679 0.0473,0.34403 0.0729,0.41607 0.1649,0.46532 0.52412,0.90972 0.87368,1.08085 0.51297,0.25112 0.89995,0.19024 1.42787,-0.22463 0.20664,-0.1624 0.31204,-0.22763 0.3678,-0.22763 0.0187,0 0.0771,0.0854 0.12976,0.18974 0.19022,0.37683 0.84618,1.10477 1.23796,1.37381 0.29689,0.20388 0.59285,0.21405 0.9937,0.0341 0.10581,-0.0475 0.2126,-0.0786 0.23732,-0.0691 0.0523,0.02 0.0857,0.19082 0.0866,0.44307 6.9e-4,0.22484 0.11461,0.47926 0.26085,0.5834 0.13111,0.0933 0.41904,0.12158 0.63202,0.062 0.26079,-0.073 0.26048,0.003 -0.004,1.08392 -0.63227,2.58091 -1.79555,5.35153 -2.57357,6.12953 -0.13443,0.13445 -0.3446,0.25423 -0.44604,0.25423 -0.15172,0 -0.20677,-0.28024 -0.25983,-1.32275 -0.0185,-0.36307 -0.038,-0.66457 -0.0435,-0.67001 -0.005,-0.005 -0.30925,0.32799 -0.67515,0.74094 -0.65619,0.74058 -1.23693,1.33513 -1.37767,1.41046 -0.0663,0.0355 -0.0765,0.0287 -0.12631,-0.0843 -0.0423,-0.0959 -0.0541,-0.22202 -0.054,-0.57537 1.8e-4,-0.51981 0.0374,-0.7819 0.17294,-1.22248 0.0833,-0.27077 0.0987,-0.40983 0.0452,-0.40983 -0.11834,0 -0.4655,0.34901 -1.20572,1.2121 -0.64816,0.75578 -1.39994,1.52016 -1.63544,1.66286 -0.17676,0.10712 -0.18546,0.10903 -0.22835,0.0504 -0.0245,-0.0335 -0.0454,-0.11274 -0.0463,-0.17601 -0.008,-0.54535 -0.0656,-1.40201 -0.10192,-1.52107 -0.0659,-0.21601 -0.13601,-0.20848 -0.36793,0.0395 -0.27261,0.29148 -0.51626,0.59599 -1.08052,1.35037 -0.76808,1.02687 -1.19333,1.53195 -1.24571,1.47957 -0.0493,-0.0493 -0.0805,-0.48969 -0.10914,-1.54421 -0.0375,-1.37868 -0.0547,-1.50252 -0.20514,-1.48073 -0.13285,0.0192 -0.35663,0.3806 -1.10711,1.78779 -0.83452,1.56477 -1.61896,2.75108 -1.98851,3.00722 -0.13082,0.0907 -0.16968,0.0972 -0.21965,0.037 z"
         id="path1021"
         inkscape:connector-curvature="0" />
      <path
         style="fill:#9d9d9d;fill-opacity:1;stroke-width:0.18100786"
         d="m 220.84154,196.89725 c -0.35983,-0.12858 -1.29654,-0.68465 -2.0816,-1.2357 -2.02009,-1.41796 -2.6854,-1.71309 -4.61278,-2.04624 -1.70538,-0.29477 -2.2778,-0.53916 -4.57422,-1.95291 -1.43513,-0.8835 -2.28296,-0.98682 -4.18451,-0.5099 -1.85908,0.46628 -1.72209,0.46819 -1.72127,-0.0241 0.003,-1.42798 2.34786,-2.9597 5.0889,-3.32331 0.70038,-0.0929 0.97211,-0.22938 1.25907,-0.63238 0.62418,-0.87658 2.06036,-4.04442 3.9715,-8.76011 1.00867,-2.48886 2.4088,-5.70627 3.11139,-7.14981 1.21099,-2.48806 1.28209,-2.70466 1.36657,-4.16318 0.049,-0.84622 0.21229,-1.78293 0.36286,-2.0816 0.15057,-0.29866 0.8563,-1.15526 1.5683,-1.90355 0.73264,-0.76999 1.86961,-2.28736 2.61943,-3.49583 0.7287,-1.17441 2.0813,-3.14106 3.00578,-4.37035 0.92448,-1.22928 1.78049,-2.53692 1.90225,-2.90587 0.19599,-0.59386 0.17497,-0.76992 -0.18326,-1.53476 l -0.40465,-0.86393 -2.01473,0.54023 c -1.1081,0.29713 -2.15444,0.58201 -2.3252,0.63306 -0.17076,0.051 -0.54848,0.51171 -0.83939,1.02366 -0.29091,0.51195 -0.74046,1.1271 -0.999,1.36698 l -0.47008,0.43617 -0.27435,-0.65661 c -0.15089,-0.36113 -0.27435,-0.7404 -0.27435,-0.84283 0,-0.10241 -0.39882,0.22755 -0.88627,0.73327 -0.66002,0.68476 -0.99502,0.9041 -1.31231,0.85919 -0.33277,-0.0471 -0.43845,-0.18908 -0.48276,-0.64858 -0.0686,-0.71127 -0.14521,-0.72554 -0.62446,-0.11627 -0.39553,0.50283 -1.71383,1.51909 -1.97058,1.51909 -0.0846,0 -0.15643,-0.34618 -0.15957,-0.7693 l -0.005,-0.76927 -0.45866,0.54302 c -0.25227,0.29866 -0.78785,0.9348 -1.19019,1.41361 -0.40234,0.47884 -0.77687,0.82526 -0.83232,0.76982 -0.0554,-0.0554 -0.18977,-0.69157 -0.29853,-1.41362 l -0.19774,-1.31283 -0.86215,1.66458 c -1.24933,2.41211 -2.12223,3.32375 -2.12223,2.2164 0,-0.19323 -0.0486,-0.35133 -0.10811,-0.35133 -0.31667,0 -3.02794,1.55427 -3.67008,2.10392 -0.41087,0.35168 -1.40501,1.44415 -2.2092,2.42769 -1.82583,2.23303 -3.8516,3.66733 -3.54984,2.5134 0.0781,-0.29879 0.0358,-0.35024 -0.20515,-0.24976 -1.66746,0.6952 -4.0618,0.93826 -4.38437,0.44507 -0.0977,-0.14934 -0.14513,-0.40748 -0.10549,-0.57365 0.0599,-0.25104 -0.0647,-0.29696 -0.73623,-0.27152 -0.61457,0.0233 -0.86991,-0.0536 -1.06527,-0.32073 -0.38079,-0.52068 -0.30498,-2.01441 0.17351,-3.41868 0.39537,-1.16032 0.40062,-1.23056 0.0858,-1.14825 -0.4539,0.11871 -0.42697,-0.10041 0.21908,-1.78313 2.50504,-6.52466 7.13893,-12.10438 14.35396,-17.28377 0.64879,-0.46573 1.03751,-0.94415 1.47836,-1.81945 3.28729,-6.52695 10.76932,-12.75469 18.90984,-15.73978 2.38233,-0.87359 5.88367,-1.7318 10.04593,-2.46232 3.30699,-0.58041 4.18945,-0.66878 6.7878,-0.6797 3.51769,-0.0148 4.39713,0.16173 7.67239,1.53988 3.4615,1.45651 4.78604,2.21493 6.44623,3.69107 1.62501,1.44487 2.74965,2.20537 3.34864,2.26439 0.95811,0.0944 1.41634,-0.0369 1.93367,-0.55429 0.48236,-0.48235 0.53325,-0.62922 0.4234,-1.2218 -0.17735,-0.95665 -0.69117,-1.71548 -2.39908,-3.54312 -2.05536,-2.19941 -2.98232,-4.03732 -2.9941,-5.93645 -0.006,-0.98583 0.0935,-1.56035 0.38482,-2.21818 0.2162,-0.48826 0.36571,-0.91512 0.33227,-0.94857 -0.0335,-0.0334 -0.68373,0.14862 -1.44507,0.4046 -1.00755,0.33876 -1.7115,0.73365 -2.58676,1.45109 -2.02607,1.66073 -2.46761,1.7238 -1.67607,0.2394 0.26169,-0.49076 0.43031,-0.89228 0.37472,-0.89228 -0.0556,0 -0.62668,0.2889 -1.26908,0.64201 -0.64241,0.35311 -1.21352,0.59651 -1.26915,0.54089 -0.0556,-0.0556 0.33202,-0.51863 0.86143,-1.02891 l 0.96254,-0.92777 -0.70398,0.14002 c -2.00134,0.39806 -2.07606,0.40559 -2.01908,0.20355 0.0315,-0.11183 0.64407,-0.48841 1.36121,-0.83685 0.71713,-0.34844 1.30557,-0.67425 1.30766,-0.72403 0.002,-0.0498 -0.6845,-0.0905 -1.52573,-0.0905 -2.3609,0 -2.33727,-0.39522 0.0665,-1.11193 0.38826,-0.11577 0.042,-0.34393 -1.07107,-0.70577 -1.09208,-0.35502 -1.07915,-0.37663 0.34603,-0.57823 l 0.97956,-0.13857 -1.03157,-0.68492 c -0.56737,-0.37672 -0.983,-0.76354 -0.92363,-0.8596 0.0594,-0.0961 0.51829,-0.17467 1.01982,-0.17467 h 0.91187 l -0.8773,-0.79674 c -0.48251,-0.4382 -0.83657,-0.83809 -0.78679,-0.88863 0.0498,-0.0505 0.52046,-0.007 1.04595,0.0977 0.5255,0.10428 1.00747,0.1376 1.07103,0.074 0.0636,-0.0636 -0.12721,-0.421 -0.42396,-0.79429 -0.95338,-1.19928 -0.95334,-1.1998 0.0919,-1.06114 0.51402,0.0682 1.07614,0.16834 1.24915,0.22257 0.173,0.0542 -0.0927,-0.28118 -0.59049,-0.74538 l -0.90504,-0.84398 1.11938,0.0871 c 0.61566,0.0479 1.16263,0.0438 1.21549,-0.009 0.0529,-0.0529 -0.18564,-0.42527 -0.52999,-0.82757 -0.34435,-0.4023 -0.59405,-0.76351 -0.55488,-0.80268 0.0392,-0.0392 0.79212,0.17056 1.67321,0.46607 0.8811,0.29551 1.61575,0.52472 1.63258,0.50936 0.0168,-0.0154 -0.2606,-0.497 -0.61648,-1.07029 -0.35588,-0.573289 -0.60174,-1.087664 -0.54636,-1.143052 0.0554,-0.05539 0.51608,0.109776 1.02375,0.367032 0.50767,0.257256 0.92304,0.422395 0.92304,0.366975 0,-0.05542 -0.16457,-0.423334 -0.36569,-0.817585 -0.20114,-0.394252 -0.28567,-0.716821 -0.18786,-0.716821 0.0978,0 0.68167,0.44955 1.29744,0.999001 0.61578,0.54945 1.14918,0.96942 1.18533,0.93327 0.0361,-0.0361 -0.0582,-0.416947 -0.20965,-0.846224 -0.15146,-0.429275 -0.24622,-0.809663 -0.21057,-0.845305 0.13253,-0.132531 1.01237,0.691461 1.38895,1.300793 0.60222,0.974396 0.85619,0.825936 0.70176,-0.410236 -0.0715,-0.572437 -0.13689,-1.234039 -0.14529,-1.470226 -0.0242,-0.678951 0.36081,-0.226693 1.16788,1.37205 l 0.71205,1.410488 0.20309,-1.086052 0.2031,-1.086047 0.29737,0.672966 c 0.16355,0.370131 0.29736,0.792955 0.29736,0.939613 0,0.62547 0.33514,0.39696 0.55159,-0.376096 0.21793,-0.778386 0.24648,-0.807364 0.39804,-0.403981 0.0898,0.239004 0.21065,1.969727 0.26856,3.846047 0.0655,2.12224 0.16569,3.30357 0.26511,3.1259 0.22927,-0.40967 1.57053,-1.1373 2.34667,-1.27305 1.46149,-0.25563 3.32088,1.20293 3.8637,3.03081 0.35907,1.20912 0.34152,1.71629 -0.0886,2.55995 -0.1976,0.38759 -0.34014,0.72229 -0.31677,0.74378 0.0234,0.0215 0.57197,0.34537 1.21907,0.71973 1.64966,0.95437 2.40864,1.58238 2.80752,2.32304 0.41694,0.77422 0.30316,0.93211 -0.48754,0.67654 -0.38582,-0.12471 -0.85034,-0.13631 -1.29974,-0.0325 -0.38463,0.0889 -1.89152,0.11822 -3.34864,0.0652 -2.57628,-0.0937 -2.66678,-0.0844 -3.28284,0.33746 -0.36362,0.24901 -0.7256,0.7011 -0.84962,1.06112 -0.20245,0.58765 -0.18381,0.65583 0.29517,1.07978 0.64326,0.56935 1.27692,1.60536 1.2778,2.08916 3.6e-4,0.20326 0.36094,0.72315 0.80127,1.15529 1.47413,1.44676 2.25211,3.98475 1.89714,6.18898 -0.18993,1.1793 -0.90154,3.09483 -1.85961,5.00575 -0.33587,0.6699 -0.99142,2.39265 -1.45677,3.82834 -0.46535,1.43569 -0.90629,2.71789 -0.97985,2.84935 -0.0736,0.13144 -0.11044,-0.59522 -0.082,-1.6148 0.0568,-2.03538 0.0516,-2.03243 -0.8621,0.48643 -0.32247,0.88891 -0.81528,2.11071 -1.09515,2.71512 l -0.50886,1.09892 -0.0155,-1.81009 c -0.0141,-1.64126 -0.0387,-1.76743 -0.26436,-1.35284 -0.39364,0.72341 -0.77746,2.46254 -0.98949,4.48346 -0.35837,3.41579 -1.01767,5.75665 -2.20262,7.82037 -0.3503,0.6101 -0.35974,0.61431 -0.25532,0.1139 0.27642,-1.32454 0.44277,-4.56201 0.33138,-6.44918 l -0.12286,-2.08159 -0.79434,2.44361 c -0.43688,1.34398 -0.87256,2.52286 -0.96817,2.61972 -0.23014,0.23317 -0.0268,-2.67074 0.30297,-4.32707 0.22386,-1.1243 0.22271,-1.57829 -0.003,-1.35217 -0.0429,0.0429 -0.70281,1.2579 -1.46651,2.70004 -1.60518,3.03113 -2.57565,4.45788 -3.8291,5.62937 -1.74188,1.62798 -1.77903,1.49119 -0.3866,-1.42343 1.36905,-2.86567 2.38237,-5.359 2.59313,-6.38057 0.12797,-0.62026 0.0971,-0.60107 -1.47351,0.91577 -0.88232,0.85213 -1.87683,1.73891 -2.21001,1.97064 l -0.60579,0.42132 0.63989,-0.89067 c 0.74001,-1.03006 2.11025,-3.33773 2.11025,-3.55396 0,-0.0809 -0.58686,0.35799 -1.30413,0.97533 -2.15507,1.85481 -3.91054,2.8532 -5.82667,3.31381 -0.48059,0.11553 -0.42811,0.0222 0.63353,-1.12575 1.17552,-1.27114 2.96567,-3.47456 2.82288,-3.47456 -0.2567,0 -4.03985,2.50332 -5.77132,3.8189 -1.12656,0.85597 -2.62841,1.92801 -3.33744,2.38233 -1.44967,0.92887 -1.40974,0.84005 -1.67645,3.73035 -0.0839,0.90912 -0.0851,2.38308 -0.003,3.2755 0.2396,2.5966 1.01338,7.22818 1.43749,8.60437 0.36427,1.18204 0.49723,1.36763 1.98166,2.7661 1.99213,1.87676 2.37004,2.65078 2.4939,5.10775 0.085,1.68651 0.10515,1.75115 1.04718,3.36225 2.37401,4.06017 6.87483,10.42013 8.88352,12.55303 l 1.06226,1.12794 1.24866,-0.21851 c 1.89773,-0.33209 4.34966,-0.14774 5.59048,0.42033 1.16157,0.53178 2.71756,1.98023 2.62836,2.4467 -0.0369,0.1927 -0.28411,0.3438 -0.65475,0.40013 -0.56309,0.0856 -0.58056,0.11024 -0.32047,0.45252 0.1513,0.19911 0.27768,0.50456 0.28084,0.67877 0.005,0.27617 -0.18562,0.31739 -1.48756,0.32158 -0.82131,0.003 -2.60589,-0.17539 -3.96573,-0.39565 -2.47073,-0.40019 -2.4732,-0.40022 -3.62015,-0.0501 -1.07659,0.32868 -1.74609,0.36609 -4.66051,0.26046 -0.39693,-0.0144 -1.22502,0.27177 -2.32399,0.80308 -1.69145,0.81775 -2.10156,0.92824 -2.65581,0.71556 -0.94707,-0.36342 0.26106,-1.75569 2.83077,-3.2622 l 1.45244,-0.8515 -0.0882,-1.19161 c -0.0915,-1.23607 -0.53105,-2.49299 -1.96752,-5.6263 -1.0414,-2.27161 -5.56432,-9.12664 -7.47925,-11.33576 -0.83578,-0.96416 -1.72581,-2.17418 -1.97787,-2.68895 -0.59695,-1.21915 -1.02169,-3.4209 -1.8338,-9.50631 -0.72998,-5.47006 -1.07815,-7.40364 -1.41123,-7.83732 -0.19339,-0.2518 -0.43334,-0.15351 -2.01204,0.82422 -2.5401,1.57315 -3.60324,2.6421 -6.61731,6.65353 -3.71904,4.94967 -4.19059,5.80353 -4.44596,8.05051 -0.14157,1.24575 -0.44387,1.8975 -1.88237,4.05838 -0.56925,0.85512 -1.39138,2.32856 -1.82694,3.27433 -0.43558,0.94576 -1.57699,3.26719 -2.53647,5.15872 -1.94629,3.83691 -2.79623,6.21932 -3.09965,8.68828 -0.38193,3.1078 -0.0633,3.50018 3.0253,3.72508 2.63553,0.19191 4.3132,1.11467 5.53806,3.04607 0.68415,1.0788 0.6621,1.2838 -0.13816,1.2838 -0.54781,0 -0.63317,0.051 -0.53034,0.31677 0.23301,0.60229 0.32285,1.31227 0.16507,1.30435 -0.0871,-0.004 -0.45278,-0.11315 -0.81261,-0.24174 z m -0.35822,-1.33333 c -0.37025,-0.97382 -1.08433,-1.66656 -2.3864,-2.31507 l -1.30736,-0.65116 0.94354,0.0753 c 0.77246,0.0616 1.12611,0.21615 1.95044,0.85212 1.03669,0.7998 1.67714,0.87686 0.7191,0.0865 -1.26867,-1.04659 -3.77817,-1.88426 -5.66752,-1.8918 -0.64643,-0.003 -0.89381,-0.10957 -1.38188,-0.59763 -1.26317,-1.26318 -1.18778,-3.91455 0.22119,-7.77817 0.37191,-1.01986 2.00577,-4.49553 3.63078,-7.72372 2.52841,-5.02285 3.06969,-5.97076 3.75269,-6.57196 0.86596,-0.76226 1.16767,-1.49694 1.17193,-2.85377 0.002,-0.66398 0.23908,-1.24949 1.28217,-3.16764 3.138,-5.77058 5.60624,-8.6447 10.03028,-11.67968 2.07309,-1.42218 3.81384,-3.08554 3.65695,-3.49439 -0.0877,-0.2286 -0.27115,-0.20192 -1.20522,0.17537 -0.60595,0.24475 -2.57277,0.73946 -4.3707,1.09933 l -3.26897,0.65433 0.14883,0.64926 c 0.0819,0.35709 0.14342,1.06541 0.13679,1.57402 -0.0165,1.26714 -0.65032,2.33398 -3.69637,6.22154 -1.3666,1.74413 -2.8749,3.74132 -3.35177,4.4382 -0.47689,0.69688 -1.14928,1.51467 -1.49421,1.81731 -0.59432,0.52145 -0.63462,0.63211 -0.76966,2.11379 -0.1916,2.10208 -0.59783,3.40757 -1.44779,4.65277 -0.80276,1.17605 -1.53833,2.83101 -2.25885,5.08223 -0.27084,0.84621 -0.843,2.31237 -1.27147,3.25814 -0.42847,0.94576 -1.19476,2.73774 -1.70286,3.98217 -0.5081,1.24443 -1.10583,2.58463 -1.32829,2.97821 -0.64667,1.14414 -1.72745,1.84545 -3.39682,2.20418 -1.73157,0.37209 -2.66262,0.86105 -2.35207,1.23524 0.15401,0.18558 0.35374,0.20679 0.78428,0.0833 0.85279,-0.24457 2.22567,-0.20142 2.92803,0.0921 0.33923,0.14173 0.96788,0.57967 1.39699,0.9732 1.1342,1.0401 2.12444,1.66521 2.63788,1.66521 1.32493,0 6.17615,2.08887 6.9129,2.9766 0.36925,0.44492 0.56024,0.32851 0.35344,-0.21543 z m 29.85338,-4.50091 c 1.86846,-0.739 2.17425,-0.81165 2.6668,-0.63353 0.75855,0.27429 1.07682,0.25304 1.36231,-0.091 0.21023,-0.25332 0.61608,-0.28029 3.05405,-0.20294 1.54637,0.049 3.53551,0.22362 4.4203,0.38791 0.8848,0.1643 1.65132,0.25611 1.70339,0.20405 0.23092,-0.23092 -0.61792,-0.80642 -1.64645,-1.11626 l -1.12263,-0.33818 1.90059,-0.0905 1.90058,-0.0905 -0.63353,-0.40704 c -1.1585,-0.74435 -1.71453,-0.83017 -4.57635,-0.7063 -1.78309,0.0772 -2.96477,0.0473 -3.50481,-0.0887 -0.74167,-0.18675 -0.85167,-0.28863 -1.22634,-1.13584 -0.22637,-0.51186 -1.58504,-2.39448 -3.01924,-4.1836 -3.00288,-3.74594 -4.49944,-5.98244 -6.05721,-9.05202 -0.93191,-1.83633 -1.12439,-2.3792 -1.22414,-3.45252 -0.19244,-2.07058 -0.46601,-2.62576 -2.48653,-5.04635 -1.07459,-1.28735 -1.54718,-2.62135 -2.33599,-6.59399 -0.89199,-4.49223 -1.12292,-8.32578 -0.61116,-10.1455 0.10719,-0.38113 -0.0458,-0.3014 -1.03708,0.54023 -0.63956,0.54305 -1.19509,1.00729 -1.2345,1.03164 -0.0394,0.0244 0.1375,0.51433 0.39315,1.08884 0.6089,1.36838 0.81389,2.57033 1.03954,6.09523 0.50691,7.91831 1.30618,10.67347 3.91328,13.48937 0.63331,0.68404 1.15148,1.28059 1.15148,1.32566 0,0.15893 4.29678,6.94969 5.6888,8.99075 1.72311,2.52653 2.01156,3.1795 2.35935,5.34083 0.14999,0.93213 0.35769,1.91826 0.46154,2.1914 0.10384,0.27314 0.16617,0.51406 0.1385,0.53538 -0.0277,0.0213 -0.63439,0.37636 -1.34825,0.78901 -1.54273,0.89178 -2.41273,1.59267 -2.41273,1.94374 0,0.14048 0.0479,0.25542 0.10641,0.25542 0.0585,0 1.05611,-0.37561 2.21687,-0.8347 z m -52.14569,-28.47017 c 1.39981,-0.48725 1.49331,-0.49844 1.49331,-0.17859 0,0.44864 0.0709,0.43512 0.96293,-0.18358 1.14667,-0.7953 2.84502,-2.39094 4.52694,-4.25318 l 1.51335,-1.6756 0.11157,-1.79618 c 0.0614,-0.9879 0.27622,-2.40708 0.47747,-3.15374 0.20124,-0.74665 0.36728,-1.39128 0.36899,-1.43251 0.001,-0.0412 -0.55915,0.46787 -1.24636,1.1313 -0.68719,0.66344 -1.30991,1.20625 -1.38381,1.20625 -0.27762,0 0.0909,-2.49515 0.56135,-3.80116 0.26899,-0.74666 0.97357,-2.32573 1.56575,-3.50906 0.69318,-1.38512 0.97508,-2.11248 0.79143,-2.04201 -0.63309,0.24295 -0.0825,-0.9206 1.42916,-3.02035 0.5629,-0.78188 0.98186,-1.4632 0.93102,-1.51403 -0.19098,-0.19098 -1.70254,0.70315 -3.04231,1.79962 -2.30469,1.88617 -6.60832,5.88954 -7.72092,7.18224 -2.28909,2.65965 -5.11769,7.2936 -5.72245,9.37478 -0.10777,0.37087 -0.0704,0.39005 0.56012,0.28773 l 0.67558,-0.10963 -0.39353,0.55266 c -0.76982,1.08111 -1.48227,2.83294 -1.48242,3.6451 l -1.4e-4,0.79104 1.06616,-0.0771 c 1.04951,-0.0759 1.06326,-0.0708 0.88124,0.32871 -0.50373,1.10557 0.68698,1.27874 3.07557,0.44731 z m 12.78107,-9.41716 c 1.34771,-2.55078 1.37031,-2.56065 1.37704,-0.60191 0.003,0.92088 0.0705,1.67433 0.14953,1.67433 0.0791,0 0.64725,-0.69236 1.2626,-1.53857 0.61535,-0.84621 1.20228,-1.53857 1.30429,-1.53857 0.10462,0 0.18546,0.44358 0.18546,1.01762 0,1.01347 0.001,1.01654 0.40727,0.75158 0.224,-0.14631 0.88127,-0.82824 1.4606,-1.51538 1.16801,-1.38539 1.48823,-1.62107 1.2107,-0.89113 -0.2269,0.5968 -0.23971,1.90437 -0.0187,1.90437 0.0901,0 0.59917,-0.4917 1.1313,-1.09267 l 0.96751,-1.09267 0.0458,0.94239 c 0.0525,1.08003 0.12761,1.21246 0.54016,0.95223 0.71867,-0.45332 1.96093,-3.21123 2.66659,-5.92 0.34765,-1.33454 0.37048,-1.57774 0.13979,-1.48921 -0.53126,0.20387 -0.94875,-0.08 -0.94875,-0.645 0,-0.48442 -0.0363,-0.5178 -0.36885,-0.33979 -0.20287,0.10858 -0.52367,0.14827 -0.71289,0.0882 -0.36161,-0.11477 -1.35031,-1.15116 -1.4955,-1.56764 -0.0685,-0.19635 -0.15179,-0.18751 -0.42819,0.0454 -0.5532,0.46622 -0.96672,0.53976 -1.496,0.26606 -0.52082,-0.26932 -0.92881,-0.95709 -0.92881,-1.56574 0,-0.29971 -0.0586,-0.32854 -0.35012,-0.17249 -0.19256,0.10305 -0.6748,0.18737 -1.07163,0.18737 h -0.72153 l -0.10556,-1.1313 c -0.0581,-0.62221 -0.12564,-1.41638 -0.15017,-1.76483 l -0.0446,-0.63352 -1.47839,-0.0523 -1.47838,-0.0523 -0.69371,0.82274 c -0.38154,0.45252 -1.12703,1.53496 -1.65665,2.40544 l -0.96294,1.58269 0.54778,0.0561 0.54778,0.0561 -1.06328,1.26636 c -1.16202,1.38395 -2.29706,3.41923 -2.88725,5.1772 -0.59986,1.78684 -0.50499,1.8438 0.88579,0.53181 1.09948,-1.0372 2.35649,-1.92929 2.35649,-1.67239 0,0.0467 -0.15822,0.35419 -0.35161,0.68343 -0.51765,0.88131 -1.43006,3.72721 -1.55868,4.86171 -0.0615,0.54238 -0.038,1.17994 0.0521,1.41681 0.15894,0.41761 0.18459,0.40252 0.84546,-0.49776 0.37484,-0.51066 0.69763,-0.92845 0.71729,-0.92845 0.0196,0 0.003,0.56909 -0.0357,1.26464 -0.10427,1.84528 0.0233,2.02375 0.771,1.07883 0.33846,-0.4277 0.98443,-1.47612 1.43548,-2.32984 z m 13.37044,-3.51791 c 0.62449,-0.23493 2.1536,-0.5658 3.39803,-0.73526 2.85032,-0.38816 3.85759,-0.56715 5.84691,-1.03898 1.52334,-0.36132 1.62656,-0.41788 2.3531,-1.28955 0.41793,-0.50141 1.1172,-1.30579 1.55393,-1.7875 0.43673,-0.48171 0.70145,-0.87583 0.58828,-0.87583 -0.71363,0 0.82177,-1.86858 3.20214,-3.89699 1.73591,-1.47923 2.11977,-1.90986 2.77952,-3.11807 0.42101,-0.77099 0.98034,-1.61937 1.24295,-1.88528 0.45489,-0.46056 0.46894,-0.53065 0.29682,-1.48024 l -0.18068,-0.99679 -0.49561,1.02773 c -0.27258,0.56525 -0.70802,1.30828 -0.96764,1.65117 l -0.47203,0.62344 v -2.04141 -2.04142 l -0.93869,1.40345 c -1.11927,1.67344 -3.13839,3.73931 -4.67374,4.78195 -2.06209,1.40034 -4.51893,2.35084 -6.06258,2.34549 l -0.72403,-0.003 0.89212,-0.45809 c 1.84005,-0.94482 3.61287,-2.82346 4.17922,-4.42867 0.14974,-0.42441 0.24861,-0.79528 0.21972,-0.82418 -0.0289,-0.0289 -0.98683,0.56252 -2.12877,1.31423 -2.54393,1.67463 -3.76593,2.30347 -5.19678,2.67423 -1.38402,0.35864 -4.53046,0.5429 -5.83688,0.34181 l -0.99306,-0.15286 0.69911,-0.41249 c 0.38451,-0.22686 0.66215,-0.44945 0.61697,-0.49462 -0.0452,-0.0452 -1.54197,-0.11546 -3.32621,-0.15616 -1.78423,-0.0407 -3.50114,-0.13127 -3.81536,-0.20125 -0.68615,-0.15281 -0.78019,0.0826 -0.57296,1.43459 0.18228,1.18919 0.35525,1.33295 1.14859,0.95464 0.87718,-0.4183 0.99121,-0.39036 0.99121,0.24293 0,0.66894 0.45205,1.80427 0.71839,1.80427 0.10662,0 0.52107,-0.20657 0.92101,-0.45904 0.39995,-0.25248 0.79636,-0.41628 0.88093,-0.36402 0.0846,0.0523 0.20585,0.37275 0.26954,0.71219 0.13885,0.74016 0.743,1.55893 1.15029,1.55893 0.16155,0 0.51425,-0.21129 0.7838,-0.46952 l 0.49008,-0.46953 0.12695,0.42427 c 0.0698,0.23336 0.24307,0.60839 0.385,0.83341 0.24247,0.3844 0.28936,0.39293 0.77624,0.14116 l 0.51819,-0.26796 -0.36098,0.94487 c -0.3905,1.02216 -1.60631,5.5606 -1.48963,5.5606 0.0391,0 0.5821,-0.19221 1.20659,-0.42715 z m 32.12123,-5.36511 c 2.12897,-3.57186 3.65564,-5.87415 3.79969,-5.7301 0.10395,0.10395 -0.35881,1.86531 -0.93091,3.54331 -0.25182,0.73858 -0.41958,1.38114 -0.3728,1.42791 0.0468,0.0468 0.17154,-0.14242 0.27725,-0.42045 0.22255,-0.58535 1.45557,-2.62183 1.58744,-2.62183 0.0489,0 0.0512,1.7068 0.005,3.79291 -0.1148,5.17953 0.21265,4.87021 1.04513,-0.98729 0.53375,-3.75563 0.83035,-5.04084 1.48076,-6.41662 0.39013,-0.82522 0.48888,-0.92874 0.60439,-0.63354 0.0759,0.19408 0.1465,0.84159 0.15681,1.43892 l 0.0187,1.08604 0.35424,-0.42516 c 0.41107,-0.49336 0.97633,-2.22485 1.2956,-3.96867 l 0.2229,-1.21741 0.15636,0.99555 c 0.24362,1.55103 0.32131,1.86105 0.43732,1.74503 0.0593,-0.0592 0.36997,-0.90376 0.69047,-1.87669 0.3205,-0.97291 1.02702,-2.62669 1.57006,-3.67507 1.40001,-2.70286 1.74396,-4.79517 1.1288,-6.86667 -0.36784,-1.23862 -1.93764,-2.9022 -2.73859,-2.9022 -1.386,0 -3.85325,-2.73373 -3.85325,-4.26942 0,-0.62 -0.13353,-0.92083 -0.72748,-1.63888 -0.72916,-0.88155 -1.43893,-2.44383 -1.45112,-3.19415 -0.006,-0.3793 -0.0293,-0.37266 -0.43665,0.12562 -0.68926,0.84302 -1.06458,2.30641 -0.96139,3.74857 0.12508,1.74811 0.84644,3.08977 2.85544,5.31084 0.89655,0.99119 1.79214,2.13689 1.99018,2.54601 0.42564,0.87925 0.46433,1.84826 0.0948,2.37576 -0.57713,0.82398 -2.33405,1.23738 -3.22723,0.75936 -0.44832,-0.23994 -1.63107,-1.16036 -2.94099,-2.28869 -1.05102,-0.90534 -3.58631,-2.4262 -3.66946,-2.20123 -0.0313,0.0848 0.0363,0.3286 0.15043,0.54175 0.11407,0.21316 0.17345,0.42152 0.13194,0.46303 -0.0415,0.0415 -0.55719,-0.0923 -1.14596,-0.29731 -1.05081,-0.36593 -3.5141,-0.69624 -3.5141,-0.47122 0,0.0629 0.54981,0.39716 1.2218,0.74266 1.8088,0.93 1.80895,0.9316 0.0866,0.92929 -1.56313,-0.002 -3.38761,0.32251 -3.5822,0.63736 -0.0575,0.0931 0.87489,0.16282 2.17847,0.16282 2.23997,0 3.53452,0.25704 3.53452,0.70179 0,0.15723 -1.08472,0.62863 -2.34168,1.01765 -0.39997,0.12379 -0.41263,0.15734 -0.13576,0.3598 0.41844,0.30596 0.38279,0.45488 -0.1089,0.45488 -0.22783,0 -0.73136,0.16167 -1.11895,0.35927 -0.38759,0.1976 -0.74275,0.32123 -0.78926,0.27473 -0.0465,-0.0465 0.26985,-0.24322 0.70301,-0.43715 0.77684,-0.3478 0.78091,-0.35428 0.29847,-0.47536 -0.26901,-0.0675 -0.4891,-0.17935 -0.4891,-0.24851 0,-0.0692 0.5678,-0.30863 1.26178,-0.53214 0.69396,-0.22351 1.30374,-0.47431 1.35505,-0.55732 0.0513,-0.083 -0.69977,-0.20303 -1.66904,-0.26672 -0.96928,-0.0637 -2.24657,-0.16458 -2.83842,-0.22421 -0.99681,-0.10045 -1.05016,-0.12815 -0.72403,-0.37605 0.80659,-0.61313 2.02786,-0.99538 3.48451,-1.09066 0.82685,-0.0541 1.43775,-0.16042 1.35756,-0.23632 -0.0802,-0.0759 -0.73308,-0.31096 -1.45084,-0.52237 -0.71776,-0.21143 -1.34884,-0.4553 -1.4024,-0.54195 -0.18786,-0.30398 1.73518,-0.60562 3.21454,-0.50422 l 1.45201,0.0995 -0.52704,-0.42924 c -0.81865,-0.66674 -2.39392,-1.45682 -3.78519,-1.89847 -1.92393,-0.61074 -5.55584,-0.68813 -8.86939,-0.189 -1.39376,0.20994 -3.75591,0.54639 -5.24923,0.74765 -2.85458,0.38472 -3.71069,0.63723 -8.7783,2.58918 -1.62294,0.62513 -3.00406,1.28866 -3.62015,1.73921 -0.54787,0.40065 -2.25893,1.57627 -3.80235,2.61245 -3.03643,2.03854 -5.4297,4.14011 -7.08714,6.22337 -1.09483,1.3761 -2.61352,3.79223 -2.47238,3.93338 0.0449,0.0449 0.6832,-0.0438 1.41839,-0.19705 1.58384,-0.33024 6.44052,-0.37574 8.50375,-0.0797 1.73757,0.24935 4.48434,0.25846 5.11946,0.017 0.27048,-0.10284 0.49178,-0.15947 0.49178,-0.12584 0,0.0336 -0.24541,0.36994 -0.54536,0.74738 -0.29995,0.37743 -0.52173,0.70988 -0.49285,0.73876 0.15926,0.15926 3.91267,-0.34999 4.96291,-0.67336 2.41216,-0.74268 4.99289,-2.15166 6.99155,-3.81711 0.47867,-0.39887 0.89895,-0.69601 0.93396,-0.66032 0.14108,0.14383 -0.77666,2.65205 -1.24898,3.41354 -0.27788,0.448 -0.96194,1.2829 -1.52014,1.85534 -0.5582,0.57243 -0.95456,1.04079 -0.8808,1.04079 0.27695,0 3.15427,-1.52475 4.19875,-2.22501 2.6409,-1.77054 4.83329,-4.22945 5.35924,-6.01074 0.13229,-0.44805 0.29402,-0.81464 0.3594,-0.81464 0.19351,0 0.34512,1.04363 0.34512,2.37572 0,0.68444 0.0611,1.24074 0.13576,1.23622 0.0747,-0.005 0.45459,-0.67651 0.84429,-1.49331 l 0.70854,-1.4851 0.25088,1.10087 0.25089,1.10087 0.69361,-0.69361 c 0.84059,-0.84059 1.39931,-0.93669 0.61241,-0.10532 -0.50804,0.53674 -0.96227,1.23335 -0.96227,1.47573 0,0.0532 0.12218,0.0498 0.27151,-0.007 0.51956,-0.19937 0.26546,0.28249 -0.69981,1.32704 -0.53422,0.57811 -1.22897,1.56261 -1.54388,2.18777 -0.74432,1.47766 -1.4267,2.21331 -3.75602,4.04921 -1.6159,1.2736 -1.85005,1.51976 -1.48814,1.56437 0.39453,0.0486 0.33022,0.15915 -0.79016,1.35757 -0.6708,0.71753 -1.22083,1.36569 -1.22228,1.44036 -0.005,0.26012 0.73617,0.13268 1.84227,-0.31677 0.61251,-0.24889 1.1402,-0.45252 1.17265,-0.45252 0.0324,0 -0.2336,0.40727 -0.59122,0.90504 -0.35761,0.49777 -0.55878,0.90504 -0.44705,0.90504 0.34984,0 2.40029,-1.09917 3.72248,-1.99548 1.64629,-1.11602 2.72792,-1.98669 2.46805,-1.98669 -0.11349,0 0.36783,-0.70242 1.06959,-1.56092 1.25322,-1.53312 2.79687,-3.68831 2.64175,-3.68831 -0.0434,0 -0.5434,0.24436 -1.11117,0.54302 -0.56777,0.29866 -1.28422,0.54303 -1.59211,0.54303 h -0.55981 l 0.58105,-0.42869 c 0.85199,-0.62858 4.02872,-3.7345 3.81964,-3.7345 -0.0982,0 -0.67524,0.16731 -1.28224,0.3718 -0.607,0.20448 -1.31716,0.3431 -1.57811,0.30804 -0.45608,-0.0613 -0.42888,-0.10848 0.70208,-1.21845 1.06848,-1.04863 4.15265,-3.26255 4.54501,-3.26255 0.0887,0 0.16119,-0.0886 0.16119,-0.19692 0,-0.1248 -0.24859,-0.16 -0.67877,-0.0961 -0.37333,0.0554 -1.24314,0.1551 -1.93292,0.22147 l -1.25413,0.12066 0.44379,-0.56707 c 0.43472,-0.55546 2.10479,-1.90364 2.55883,-2.06564 0.12633,-0.0451 0.18877,-0.12721 0.13878,-0.18255 -0.05,-0.0553 -0.82381,0.13612 -1.71957,0.42544 -0.89578,0.28932 -1.69561,0.50476 -1.77742,0.47876 -0.0818,-0.026 0.0217,-0.26394 0.22997,-0.52874 0.31572,-0.40138 0.48016,-0.465 0.98863,-0.38249 0.39165,0.0636 0.97571,-0.0379 1.63214,-0.28349 1.09887,-0.41114 1.67443,-0.47112 2.07671,-0.21641 0.18794,0.11898 -0.19839,0.45571 -1.49331,1.30161 -0.96076,0.6276 -1.74683,1.20575 -1.74683,1.28477 0,0.30555 2.69697,-0.0466 3.89167,-0.50826 0.72184,-0.27889 -0.13095,0.49232 -2.53412,2.29169 -2.0888,1.56401 -3.60631,2.88546 -3.31355,2.88546 0.0566,0 0.6216,-0.19233 1.25567,-0.42739 0.63406,-0.23506 1.44513,-0.47216 1.80236,-0.52689 0.63207,-0.0968 0.59681,-0.0481 -1.31307,1.81434 -1.07942,1.05262 -1.92237,1.95407 -1.87323,2.00321 0.0491,0.0491 0.49057,-0.16007 0.98095,-0.46491 l 0.89161,-0.55425 -0.17778,0.51 c -0.16512,0.47364 -0.81047,1.46463 -2.29338,3.52163 -0.75676,1.04973 -0.68178,1.32183 0.19926,0.72315 1.0965,-0.7451 3.17057,-1.74572 3.48402,-1.68086 0.33341,0.069 0.0608,0.45725 -1.95188,2.77933 -0.67263,0.77606 -1.1879,1.44609 -1.14504,1.48895 0.11,0.11 1.77569,-0.74637 2.7335,-1.40536 0.44263,-0.30454 1.58041,-1.16001 2.5284,-1.90105 1.89811,-1.48374 1.83305,-1.53826 0.82361,0.69016 -0.64161,1.4164 -0.3276,1.37793 0.89316,-0.10945 0.63068,-0.76843 1.16992,-1.37391 1.19831,-1.34552 0.0284,0.0284 -0.15214,1.02726 -0.40118,2.21972 -0.34604,1.65692 -0.68452,2.6528 -1.43563,4.2239 -0.94442,1.97545 -1.13782,2.91485 -0.41098,1.99624 0.18795,-0.23754 1.28845,-2.02023 2.44555,-3.96154 z m 10.69982,-24.72779 c 0.0814,-0.80943 -0.85731,-1.98857 -2.01043,-2.52546 -0.51673,-0.24058 -1.04132,-0.43822 -1.16576,-0.43919 -0.66348,-0.005 0.14167,1.4476 1.5167,2.73668 1.09887,1.03017 1.57232,1.09522 1.65949,0.22797 z m -1.36701,-3.28318 c 0.047,-0.27378 0.14641,-0.64032 0.22092,-0.81454 0.11351,-0.26541 0.0369,-0.31724 -0.47217,-0.31974 -0.85088,-0.004 -1.94314,-0.6759 -2.58573,-1.59018 -1.00094,-1.42417 -0.84251,-4.14206 0.31466,-5.39775 0.31756,-0.34459 0.90319,-0.74174 1.30141,-0.88254 l 0.72403,-0.25602 -0.60017,-0.008 c -0.3301,-0.004 -0.7781,0.0835 -0.99555,0.19519 -0.50035,0.25706 -1.36997,1.05841 -1.59125,1.46632 -0.34943,0.64414 -0.51538,2.12611 -0.34103,3.04543 0.20582,1.0853 1.96186,4.3187 2.35145,4.32973 0.14934,0.004 0.51588,0.16421 0.81454,0.35552 0.72045,0.46149 0.75944,0.45588 0.85889,-0.12348 z m 1.05759,-2.64925 c 0.18599,-0.40956 0.33996,-0.96865 0.34214,-1.24242 0.003,-0.43199 -0.0669,-0.49778 -0.53268,-0.49778 -0.85885,0 -1.17701,-0.95241 -0.65523,-1.96144 0.22719,-0.43933 0.22075,-0.54237 -0.057,-0.91054 -0.27013,-0.35811 -0.40971,-0.39703 -1.01603,-0.28329 -0.96674,0.18136 -2.0584,1.22649 -2.19805,2.10436 -0.17081,1.07378 0.0736,1.85366 0.86114,2.7484 1.24874,1.41866 2.62263,1.43668 3.25566,0.0427 z m 6.19391,0.79788 c 1.40248,0.0178 1.38694,-0.11325 2.22477,0.12917 0.19291,-0.19292 -1.35032,-1.4209 -2.74835,-2.18691 -1.46155,-0.80081 -1.60494,-0.8434 -2.18984,-0.65037 -0.58841,0.1942 -1.46145,0.0913 -2.45252,-0.28899 -0.21699,-0.0833 -0.29091,0.13751 -0.37768,1.12804 -0.0593,0.67736 -0.13169,1.38976 -0.16078,1.58311 -0.0493,0.32768 0.0878,0.35576 2.02006,0.41371 1.14012,0.0342 2.3389,-0.007 2.38631,0.0402 0.11474,0.11474 1.11253,10e-4 1.29803,-0.16796 z m -17.13747,-1.48043 c 1.51527,-1.19226 3.02993,-1.96266 3.85868,-1.96266 0.46447,0 0.78605,-0.12191 1.02241,-0.38759 l 0.34482,-0.38759 -0.72403,0.13081 c -0.39822,0.0719 -1.49084,0.45021 -2.42804,0.84058 -0.93721,0.39038 -1.73448,0.67932 -1.77171,0.64208 -0.12744,-0.12743 1.66476,-1.16586 2.48018,-1.43704 0.44799,-0.14899 1.20144,-0.32883 1.67432,-0.39965 0.47288,-0.0708 0.85978,-0.20096 0.85978,-0.28921 0,-0.0883 -0.3869,-0.17266 -0.85978,-0.18758 -0.6082,-0.0192 -0.70089,-0.0497 -0.31677,-0.10443 0.91376,-0.13009 0.90538,-0.37018 -0.0227,-0.65156 -1.19641,-0.36271 -2.71224,-1.05802 -1.96834,-0.90288 0.29867,0.0623 1.06248,0.30742 1.69737,0.54473 0.63489,0.23731 1.20507,0.37942 1.26706,0.3158 0.062,-0.0636 -0.25383,-0.44699 -0.70183,-0.85195 -0.88284,-0.79803 -0.67936,-0.7511 0.40727,0.0939 0.37333,0.29032 0.67866,0.45992 0.67853,0.37689 -1.4e-4,-0.083 -0.57781,-0.84332 -1.28371,-1.68953 -0.7059,-0.84622 -1.52963,-1.8926 -1.83052,-2.3253 -0.47485,-0.68286 -0.49589,-0.75934 -0.15935,-0.57922 0.35894,0.19209 1.70888,1.80817 3.00232,3.59419 0.29866,0.41241 0.60411,0.75176 0.67878,0.75411 0.33174,0.0105 0.0408,-0.73688 -1.32192,-3.39608 -1.0814,-2.11017 -1.3161,-2.68088 -0.90922,-2.21089 0.55388,0.63978 2.39998,4.08913 2.59144,4.84196 0.057,0.22401 0.20172,0.40728 0.32167,0.40728 0.20137,0 0.18864,-0.27703 -0.0692,-1.50617 -0.0246,-0.11738 0.0727,0.0513 0.21618,0.37486 0.29629,0.66794 0.6654,0.7985 0.51174,0.18101 -0.22507,-0.90448 -0.86306,-4.70116 -0.80048,-4.76374 0.0369,-0.0369 0.29288,0.96612 0.5688,2.22896 0.27592,1.26285 0.54117,2.35998 0.58942,2.43806 0.25712,0.41602 0.43223,0.008 0.46327,-1.07983 l 0.0349,-1.2218 0.0642,1.13129 c 0.0477,0.83891 0.13221,1.13131 0.32714,1.13131 0.14458,0 0.26702,-0.0611 0.27209,-0.13576 0.005,-0.0747 0.0807,-1.03175 0.168,-2.12684 0.0873,-1.0951 0.11119,-2.47017 0.053,-3.05572 l -0.10577,-1.06463 -0.30935,0.59822 -0.30935,0.59822 -0.23011,-0.69725 -0.23011,-0.69725 -0.36048,0.70264 -0.36047,0.70264 -0.41417,-1.14383 c -0.59679,-1.648143 -0.80384,-1.764199 -0.81926,-0.45919 -0.007,0.59235 -0.0776,1.2399 -0.15684,1.43901 -0.12663,0.31809 -0.21624,0.24669 -0.73837,-0.58827 -0.32683,-0.52266 -0.62778,-0.950294 -0.66878,-0.950294 -0.041,0 -0.0196,0.366544 0.0476,0.814534 0.0688,0.45846 0.0501,0.81454 -0.0427,0.81454 -0.0906,0 -0.48297,-0.32582 -0.87182,-0.72403 -0.81621,-0.835879 -1.07314,-0.909215 -0.95124,-0.27152 0.10508,0.5497 0.0642,0.55441 -0.61506,0.0708 -0.29487,-0.20997 -0.57408,-0.34382 -0.62045,-0.29744 -0.0464,0.0464 0.12024,0.44216 0.37026,0.87953 0.25001,0.43737 0.45555,0.85169 0.45675,0.92071 0.001,0.069 -0.5828,-0.11574 -1.29777,-0.41057 -1.49706,-0.61734 -1.86066,-0.50425 -1.22935,0.38234 l 0.41135,0.57768 -0.97644,-0.13429 -0.97644,-0.1343 0.78477,0.85138 c 0.43162,0.46825 0.75045,0.88569 0.70851,0.92764 -0.0419,0.0419 -0.54832,-0.011 -1.12527,-0.11765 -1.28724,-0.23796 -1.54751,-0.058 -0.96404,0.66664 1.00198,1.24435 0.98893,1.22007 0.59276,1.10256 -0.85687,-0.25417 -1.71815,-0.3383 -1.71815,-0.16783 0,0.0989 0.3869,0.43278 0.85979,0.74205 l 0.85979,0.56232 -1.13131,0.002 c -0.62221,0.001 -1.13106,0.0632 -1.13077,0.13788 3.6e-4,0.0747 0.38028,0.33939 0.84442,0.58828 0.97454,0.52257 1.03383,0.74983 0.25474,0.97648 -0.51387,0.14949 -0.77849,0.47158 -0.38744,0.47158 0.0931,0 0.39853,0.0891 0.67878,0.19799 l 0.50956,0.19798 -0.90504,0.35771 c -1.37141,0.54202 -1.33453,0.65156 0.21234,0.63079 2.03296,-0.0273 2.17803,0.16794 0.67126,0.9034 l -1.24561,0.60798 1.17655,-0.0965 1.17655,-0.0965 -0.72403,0.63287 c -0.81677,0.71392 -0.74897,0.80328 0.23347,0.30766 0.36936,-0.18633 0.86913,-0.39999 1.1106,-0.4748 0.41365,-0.12814 0.40056,-0.0836 -0.22626,0.77031 -1.05844,1.44189 -0.91999,1.44418 0.89658,0.0149 z m 11.51991,-1.83611 c 0.19421,-0.58576 -0.12823,-1.57462 -0.51344,-1.57462 -0.3444,0 -0.80284,0.72584 -0.80284,1.27113 0,0.98049 1.01429,1.21435 1.31628,0.30349 z m -0.67266,-0.47223 c -0.14456,-0.23391 0.0859,-0.75836 0.28038,-0.63815 0.21554,0.13322 0.20863,0.80282 -0.008,0.80282 -0.0937,0 -0.21612,-0.0741 -0.27209,-0.16467 z m 4.11752,0.49009 c 0.48084,-0.24675 1.02991,-1.24169 1.02866,-1.86399 -0.003,-1.42117 -1.65226,-3.50865 -3.07506,-3.89177 -1.72386,-0.46419 -3.51371,1.01064 -3.07652,2.53504 0.24639,0.8591 0.68408,1.44724 1.07705,1.44724 0.47475,0 0.9138,0.48146 0.9138,1.0021 0,0.90431 1.94131,1.38243 3.13207,0.77138 z m -6.0282,-2.67065 c 0.54808,-0.0938 0.62504,-0.16877 0.57058,-0.55591 -0.0846,-0.60132 -0.092,-0.60457 -0.82404,-0.36296 -0.60505,0.19968 -1.55662,1.09986 -1.55662,1.47255 0,0.0945 0.26473,0.0329 0.58828,-0.13675 0.32355,-0.16968 0.87337,-0.3573 1.2218,-0.41693 z"
         id="path1023"
         inkscape:connector-curvature="0"
         sodipodi:nodetypes="ccscccccssccccscccscccccsscscscccccccsssccccccccscscccccccccccccscccsccccscccscsccscsccccccscccccscccsccscscccccsscccccsscccsscccsccccccccccccccccccccccccccccsscssccscccscccccsccscssccccccccccccccccscssssscssssccccsscccscccsccssscsccccscsccsccsccccsssccccccsccccccccccssccccscssccccssccccscsscssccccccscscsscsccccccsscccsccscccscccccscscccccccccccscssccccsccccccsscscccccsccccccccccsccccccscscsscccscccccccscccscscscsccscccccccccsscccsccsccccscscccssccsccccsccccscccccccsccccssccccsccccsccsscsscccccccscccsscccscscscsssccscccsscccccccccccccsccscscccccccccccccccccccccccccccscccccccccccccsccccccccsccccccsccscccccscccscccssscscccscscccccccccsccccccccccccccscscccccccsccccccccsccccssscccscccccccccccassccsccsccssccssscccscccc" />
    </g>
    <circle
       style="opacity:1;vector-effect:none;fill:none;fill-opacity:1;stroke:#000000;stroke-width:0.86500001;stroke-linecap:butt;stroke-linejoin:miter;stroke-miterlimit:4;stroke-dasharray:none;stroke-dashoffset:0;stroke-opacity:1"
       id="path1071"
       cx="1471.8441"
       cy="118.41958"
       r="54.583202" />
    <circle
       style="opacity:1;vector-effect:none;fill:#cccccc;fill-opacity:0.97979796;stroke:#000000;stroke-width:0.1628411;stroke-linecap:butt;stroke-linejoin:miter;stroke-miterlimit:4;stroke-dasharray:none;stroke-dashoffset:0;stroke-opacity:1"
       id="path897"
       cx="1438.5403"
       cy="203.55557"
       r="228.50127" />
    <text
       id="text1182"
       y="187.81282"
       x="102.22215"
       style="font-style:normal;font-variant:normal;font-weight:normal;font-stretch:normal;font-size:10.58333302px;line-height:1.25;font-family:'Segoe ui';-inkscape-font-specification:'Segoe ui';text-align:center;letter-spacing:0px;word-spacing:0px;text-anchor:middle;fill:#fdfcfb;fill-opacity:1;stroke:#ffffff;stroke-width:2.66499996;stroke-miterlimit:4;stroke-dasharray:none;stroke-opacity:1;filter:url(#filter1268)"
       xml:space="preserve"><tspan
         style="font-style:normal;font-variant:normal;font-weight:normal;font-stretch:normal;font-size:22.57777786px;font-family:'Segoe ui';-inkscape-font-specification:'Segoe ui';text-align:center;text-anchor:middle;fill:#fdfcfb;fill-opacity:1;stroke:#ffffff;stroke-width:2.66499996;stroke-miterlimit:4;stroke-dasharray:none;stroke-opacity:1"
         y="187.81282"
         x="102.22215"
         id="tspan1180"
         sodipodi:role="line">miniCRAN</tspan></text>
    <text
       xml:space="preserve"
       style="font-style:normal;font-variant:normal;font-weight:normal;font-stretch:normal;font-size:10.58333302px;line-height:1.25;font-family:'Segoe ui';-inkscape-font-specification:'Segoe ui';text-align:center;letter-spacing:0px;word-spacing:0px;text-anchor:middle;fill:#000000;fill-opacity:1;stroke:#000000;stroke-width:1.16499996;stroke-miterlimit:4;stroke-dasharray:none;stroke-opacity:1"
       x="102.22215"
       y="187.81282"
       id="text989"><tspan
         sodipodi:role="line"
         id="tspan987"
         x="102.22215"
         y="187.81282"
         style="font-style:normal;font-variant:normal;font-weight:normal;font-stretch:normal;font-size:22.57777786px;font-family:'Segoe ui';-inkscape-font-specification:'Segoe ui';text-align:center;text-anchor:middle;fill:#000000;fill-opacity:1;stroke:#000000;stroke-width:1.16499996;stroke-miterlimit:4;stroke-dasharray:none;stroke-opacity:1">miniCRAN</tspan></text>
  </g>
</svg>
